<svg width="128" height="128" version="1.1" xmlns="http://www.w3.org/2000/svg" desc="Created with imagetracer.js version 1.2.5"><path fill="rgb(245,245,245)" stroke="rgb(245,245,245)" stroke-width="1" opacity="1" d="M 32.5 11 L 36 11.5 L 32.5 12 L 32.5 11 Z "></path><path fill="rgb(245,245,245)" stroke="rgb(245,245,245)" stroke-width="1" opacity="1" d="M 46.5 11 L 49 11.5 L 46.5 12 L 46.5 11 Z "></path><path fill="rgb(245,245,245)" stroke="rgb(245,245,245)" stroke-width="1" opacity="1" d="M 62.5 11 L 65 11.5 L 62.5 12 L 62.5 11 Z "></path><path fill="rgb(245,245,245)" stroke="rgb(245,245,245)" stroke-width="1" opacity="1" d="M 84.5 11 L 87 11.5 L 84.5 12 L 84.5 11 Z "></path><path fill="rgb(245,245,245)" stroke="rgb(245,245,245)" stroke-width="1" opacity="1" d="M 60.5 17 L 61 25.5 L 57.5 27 L 57.5 26 L 60 25.5 L 60.5 17 Z "></path><path fill="rgb(245,245,245)" stroke="rgb(245,245,245)" stroke-width="1" opacity="1" d="M 83.5 17 L 88 17.5 L 83.5 18 L 83.5 17 Z "></path><path fill="rgb(245,245,245)" stroke="rgb(245,245,245)" stroke-width="1" opacity="1" d="M 44.5 18 L 45 20.5 L 44 20.5 L 44.5 18 Z "></path><path fill="rgb(245,245,245)" stroke="rgb(245,245,245)" stroke-width="1" opacity="1" d="M 73.5 18 L 74 26 L 77 26.5 L 73 27 L 73.5 18 Z "></path><path fill="rgb(245,245,245)" stroke="rgb(245,245,245)" stroke-width="1" opacity="1" d="M 82 20 L 92 20.5 L 83.5 21 L 82.5 22 L 82 20 Z "></path><path fill="rgb(245,245,245)" stroke="rgb(245,245,245)" stroke-width="1" opacity="1" d="M 31.5 22 L 32.5 24 L 31.5 22 Z "></path><path fill="rgb(245,245,245)" stroke="rgb(245,245,245)" stroke-width="1" opacity="1" d="M 36.5 22 L 35.5 24 L 36.5 22 Z "></path><path fill="rgb(245,245,245)" stroke="rgb(245,245,245)" stroke-width="1" opacity="1" d="M 28.5 24 L 29.5 26 L 28.5 24 Z "></path><path fill="rgb(245,245,245)" stroke="rgb(245,245,245)" stroke-width="1" opacity="1" d="M 39.5 24 L 38.5 26 L 39.5 24 Z "></path><path fill="rgb(245,245,245)" stroke="rgb(245,245,245)" stroke-width="1" opacity="1" d="M 42.5 24 L 43.5 26 L 42.5 24 Z "></path><path fill="rgb(245,245,245)" stroke="rgb(245,245,245)" stroke-width="1" opacity="1" d="M 80.5 24 L 81.5 26 L 80.5 24 Z "></path><path fill="rgb(245,245,245)" stroke="rgb(245,245,245)" stroke-width="1" opacity="1" d="M 65.5 26 L 69 26.5 L 65.5 27 L 65.5 26 Z "></path><path fill="rgb(245,245,245)" stroke="rgb(245,245,245)" stroke-width="1" opacity="1" d="M 37.5 39 L 38 43 L 36 42.5 L 37.5 39 Z "></path><path fill="rgb(245,245,245)" stroke="rgb(245,245,245)" stroke-width="1" opacity="1" d="M 77.5 39 L 79 42.5 L 77 43 L 77.5 39 Z "></path><path fill="rgb(245,245,245)" stroke="rgb(245,245,245)" stroke-width="1" opacity="1" d="M 59.5 42 L 61 42.5 L 58.5 44 L 59.5 42 Z "></path><path fill="rgb(245,245,245)" stroke="rgb(245,245,245)" stroke-width="1" opacity="1" d="M 55.5 43 L 56.5 45 L 55.5 43 Z "></path><path fill="rgb(245,245,245)" stroke="rgb(245,245,245)" stroke-width="1" opacity="1" d="M 37.5 46 L 38 54.5 L 37 54.5 L 37.5 46 Z "></path><path fill="rgb(245,245,245)" stroke="rgb(245,245,245)" stroke-width="1" opacity="1" d="M 77.5 46 L 78 53.5 L 77 53.5 L 77.5 46 Z "></path><path fill="rgb(245,245,245)" stroke="rgb(245,245,245)" stroke-width="1" opacity="1" d="M 49.5 51 L 57 51.5 L 49.5 52 L 49.5 51 Z "></path><path fill="rgb(245,245,245)" stroke="rgb(245,245,245)" stroke-width="1" opacity="1" d="M 79.5 54 L 81 56.5 Q 80.3 58.8 76.5 58 L 76.5 57 Q 80.9 58.5 80 55.5 L 79.5 54 Z "></path><path fill="rgb(245,245,245)" stroke="rgb(245,245,245)" stroke-width="1" opacity="1" d="M 46.5 55 L 47.5 57 L 46.5 55 Z "></path><path fill="rgb(245,245,245)" stroke="rgb(245,245,245)" stroke-width="1" opacity="1" d="M 58.5 56 L 61.5 57 L 63 56.5 L 59.5 58 L 58.5 56 Z "></path><path fill="rgb(245,245,245)" stroke="rgb(245,245,245)" stroke-width="1" opacity="1" d="M 71.5 56 L 70.5 58 L 68 57.5 L 71.5 56 Z "></path><path fill="rgb(245,245,245)" stroke="rgb(245,245,245)" stroke-width="1" opacity="1" d="M 40.5 57 L 44 57.5 L 40.5 58 L 40.5 57 Z "></path><path fill="rgb(245,245,245)" stroke="rgb(245,245,245)" stroke-width="1" opacity="1" d="M 37.5 72 L 40 72.5 L 36.5 74 L 37.5 72 Z "></path><path fill="rgb(245,245,245)" stroke="rgb(245,245,245)" stroke-width="1" opacity="1" d="M 47.5 72 L 50 72.5 L 47.5 73 L 47.5 72 Z "></path><path fill="rgb(245,245,245)" stroke="rgb(245,245,245)" stroke-width="1" opacity="1" d="M 66.5 72 L 70 73.5 L 69.5 83 L 69 73 Q 65.7 73.8 66.5 72 Z "></path><path fill="rgb(245,245,245)" stroke="rgb(245,245,245)" stroke-width="1" opacity="1" d="M 75.5 72 L 79 73.5 L 78.5 87 L 78 73 Q 74.7 73.8 75.5 72 Z "></path><path fill="rgb(245,245,245)" stroke="rgb(245,245,245)" stroke-width="1" opacity="1" d="M 52.5 73 L 51.5 75 L 52.5 73 Z "></path><path fill="rgb(245,245,245)" stroke="rgb(245,245,245)" stroke-width="1" opacity="1" d="M 53.5 78 L 54 80.5 L 53 80.5 L 53.5 78 Z "></path><path fill="rgb(245,245,245)" stroke="rgb(245,245,245)" stroke-width="1" opacity="1" d="M 55.5 87 L 59 87.5 L 55.5 88 L 55.5 87 Z "></path><path fill="rgb(245,245,245)" stroke="rgb(245,245,245)" stroke-width="1" opacity="1" d="M 69.5 87 L 73 87.5 L 69.5 88 L 69.5 87 Z "></path><path fill="rgb(245,245,245)" stroke="rgb(245,245,245)" stroke-width="1" opacity="1" d="M 43.5 90 L 42.5 92 L 43.5 90 Z "></path><path fill="rgb(245,245,245)" stroke="rgb(245,245,245)" stroke-width="1" opacity="1" d="M 31 104 L 33 104.5 L 31 105.5 L 31 104 Z "></path><path fill="rgb(245,245,245)" stroke="rgb(245,245,245)" stroke-width="1" opacity="1" d="M 48.5 104 L 47.5 106 L 48.5 104 Z "></path><path fill="rgb(245,245,245)" stroke="rgb(245,245,245)" stroke-width="1" opacity="1" d="M 87.5 104 L 89 106.5 L 86 108 L 85.5 116 L 85 107 Q 88.7 108.5 88 105.5 L 87.5 104 Z "></path><path fill="rgb(245,245,245)" stroke="rgb(245,245,245)" stroke-width="1" opacity="1" d="M 53.5 105 L 52.5 107 L 53.5 105 Z "></path><path fill="rgb(245,245,245)" stroke="rgb(245,245,245)" stroke-width="1" opacity="1" d="M 56.5 107 L 59 107.5 L 55.5 109 L 56.5 107 Z "></path><path fill="rgb(245,245,245)" stroke="rgb(245,245,245)" stroke-width="1" opacity="1" d="M 63.5 107 L 64 118.5 L 63 118.5 L 63.5 107 Z "></path><path fill="rgb(245,245,245)" stroke="rgb(245,245,245)" stroke-width="1" opacity="1" d="M 71.5 107 L 75 108.5 L 73.5 108 Q 70.5 108.5 71.5 107 Z "></path><path fill="rgb(245,245,245)" stroke="rgb(245,245,245)" stroke-width="1" opacity="1" d="M 78.5 109 L 79 118.5 L 78 118.5 L 78.5 109 Z "></path><path fill="rgb(245,245,245)" stroke="rgb(245,245,245)" stroke-width="1" opacity="1" d="M 36.5 110 L 38 112.5 L 36 111.5 L 36.5 110 Z "></path><path fill="rgb(245,245,245)" stroke="rgb(245,245,245)" stroke-width="1" opacity="1" d="M 69.5 110 L 70 118.5 L 69 118.5 L 69.5 110 Z "></path><path fill="rgb(245,245,245)" stroke="rgb(245,245,245)" stroke-width="1" opacity="1" d="M 55.5 119 L 58 119.5 L 55.5 120 L 55.5 119 Z "></path><path fill="rgb(255,255,255)" stroke="rgb(255,255,255)" stroke-width="1" opacity="1" d="M 0 0 L 128 0 L 128 128 L 0 128 L 0 0 Z M 33 11 L 31 12 Q 27 13 28 18 Q 30 22 36 21 L 35 24 L 32 22 Q 27 20 28 25 L 32 27 L 39 26 Q 41 25 40 21 L 35 17 Q 31 18 32 15 Q 36 14 39 17 L 40 15 Q 39 10 33 11 Z M 47 11 L 41 16 L 42 25 Q 44 28 51 27 L 55 22 L 54 15 Q 52 11 47 11 Z M 63 11 L 57 12 L 57 27 L 60 27 L 61 26 L 61 17 L 63 15 L 65 17 L 65 27 L 69 27 L 69 17 L 71 15 L 73 16 L 73 27 L 77 27 L 77 15 L 73 11 L 68 13 L 63 11 Z M 85 11 L 80 13 L 79 16 L 80 25 Q 82 28 89 27 L 92 22 L 83 23 L 84 21 L 92 21 L 91 13 L 85 11 Z M 37 39 Q 38 42 35 44 Q 34 47 37 46 Q 36 54 38 57 L 44 58 Q 46 52 41 54 L 41 46 L 44 46 L 43 42 Q 39 43 41 39 L 37 39 Z M 74 39 Q 75 42 72 44 L 72 46 L 74 47 L 74 56 Q 75 59 80 58 L 81 56 L 78 54 L 78 47 L 80 46 L 81 43 L 78 42 Q 79 37 74 39 Z M 51 42 L 45 47 L 46 56 L 50 58 L 56 57 L 58 53 L 54 54 Q 50 55 49 53 L 57 52 L 58 51 L 57 45 Q 56 41 51 42 Z M 60 42 L 58 44 L 62 49 L 62 52 L 58 57 L 62 58 L 63 56 L 66 54 L 69 58 L 72 57 L 67 51 L 71 45 L 71 42 L 69 43 Q 66 42 67 45 L 65 46 L 63 43 L 60 42 Z M 38 72 L 36 74 L 41 88 L 38 89 Q 36 94 43 92 L 50 75 Q 51 71 48 72 Q 44 75 44 82 L 40 74 Q 41 71 38 72 Z M 55 72 L 53 73 L 50 77 Q 49 83 51 86 L 56 88 L 61 87 L 64 83 L 63 76 Q 61 71 55 72 Z M 66 72 L 66 85 L 67 87 L 70 88 L 74 87 L 79 87 L 79 74 L 75 72 Q 76 80 74 84 L 70 84 L 70 74 L 66 72 Z M 82 101 Q 83 105 80 104 Q 78 109 82 108 L 82 118 L 84 119 Q 90 120 89 118 L 86 116 L 86 109 L 88 108 L 89 106 L 86 104 L 86 103 L 86 101 L 82 101 Z M 31 104 L 35 118 L 35 119 L 39 119 L 42 111 L 43 118 Q 44 120 48 119 L 51 108 Q 53 103 49 104 L 47 106 L 46 113 L 43 106 Q 44 103 41 104 L 38 112 L 35 106 L 35 104 L 31 104 Z M 56 104 L 54 105 L 52 109 L 57 108 Q 61 107 60 110 L 52 111 L 51 117 L 56 120 L 59 119 L 64 119 L 64 108 Q 63 103 56 104 Z M 66 104 L 66 119 L 70 119 L 70 108 Q 74 107 75 110 L 75 119 L 79 119 Q 81 108 76 104 Q 71 103 70 105 L 66 104 Z "></path><path fill="rgb(255,255,255)" stroke="rgb(255,255,255)" stroke-width="1" opacity="1" d="M 46.5 15 Q 50.3 14.3 51 16.5 Q 52.3 21.8 49.5 23 Q 45.8 23.8 45 21.5 Q 43.8 16.3 46.5 15 Z "></path><path fill="rgb(255,255,255)" stroke="rgb(255,255,255)" stroke-width="1" opacity="1" d="M 84.5 15 L 88 16.5 L 83.5 17 L 84.5 15 Z "></path><path fill="rgb(255,255,255)" stroke="rgb(255,255,255)" stroke-width="1" opacity="1" d="M 50.5 46 Q 55.3 44.7 54 48 L 49 47.5 L 50.5 46 Z "></path><path fill="rgb(255,255,255)" stroke="rgb(255,255,255)" stroke-width="1" opacity="1" d="M 55.5 76 Q 59.3 75.3 60 77.5 Q 61.3 82.8 58.5 84 Q 54.8 84.8 54 82.5 Q 52.8 77.3 55.5 76 Z "></path><path fill="rgb(255,255,255)" stroke="rgb(255,255,255)" stroke-width="1" opacity="1" d="M 56.5 113 Q 60.9 111.5 60 114.5 Q 58.8 117 55 116 L 56.5 113 Z "></path><path fill="rgb(196,196,196)" stroke="rgb(196,196,196)" stroke-width="1" opacity="1" d="M 37.5 12 L 38.5 14 L 37.5 12 Z "></path><path fill="rgb(196,196,196)" stroke="rgb(196,196,196)" stroke-width="1" opacity="1" d="M 44.5 12 L 42.5 15 L 44.5 12 Z "></path><path fill="rgb(196,196,196)" stroke="rgb(196,196,196)" stroke-width="1" opacity="1" d="M 57.5 12 L 58 25.5 L 57 25.5 L 57.5 12 Z "></path><path fill="rgb(196,196,196)" stroke="rgb(196,196,196)" stroke-width="1" opacity="1" d="M 66.5 12 L 67.5 14 L 66.5 12 Z "></path><path fill="rgb(196,196,196)" stroke="rgb(196,196,196)" stroke-width="1" opacity="1" d="M 74.5 12 L 75.5 14 L 74.5 12 Z "></path><path fill="rgb(196,196,196)" stroke="rgb(196,196,196)" stroke-width="1" opacity="1" d="M 33.5 14 L 37 15.5 L 35.5 15 Q 32.5 15.5 33.5 14 Z "></path><path fill="rgb(196,196,196)" stroke="rgb(196,196,196)" stroke-width="1" opacity="1" d="M 84.5 14 L 87 14.5 L 84.5 15 L 84.5 14 Z "></path><path fill="rgb(196,196,196)" stroke="rgb(196,196,196)" stroke-width="1" opacity="1" d="M 45.5 15 L 45 16.5 L 44.5 18 L 44 16.5 L 45.5 15 Z "></path><path fill="rgb(196,196,196)" stroke="rgb(196,196,196)" stroke-width="1" opacity="1" d="M 76.5 15 L 77 25.5 L 76 25.5 L 76.5 15 Z "></path><path fill="rgb(196,196,196)" stroke="rgb(196,196,196)" stroke-width="1" opacity="1" d="M 65.5 16 L 66 25.5 L 65 25.5 L 65.5 16 Z "></path><path fill="rgb(196,196,196)" stroke="rgb(196,196,196)" stroke-width="1" opacity="1" d="M 68.5 16 L 69 25.5 L 68 25.5 L 68.5 16 Z "></path><path fill="rgb(196,196,196)" stroke="rgb(196,196,196)" stroke-width="1" opacity="1" d="M 51.5 17 L 52 20.5 L 51 20.5 L 51.5 17 Z "></path><path fill="rgb(196,196,196)" stroke="rgb(196,196,196)" stroke-width="1" opacity="1" d="M 29.5 18 L 30.5 20 L 29.5 18 Z "></path><path fill="rgb(196,196,196)" stroke="rgb(196,196,196)" stroke-width="1" opacity="1" d="M 36.5 18 L 40 20.5 L 37.5 19 L 36.5 18 Z "></path><path fill="rgb(196,196,196)" stroke="rgb(196,196,196)" stroke-width="1" opacity="1" d="M 54.5 18 L 55 20.5 L 54 20.5 L 54.5 18 Z "></path><path fill="rgb(196,196,196)" stroke="rgb(196,196,196)" stroke-width="1" opacity="1" d="M 50.5 22 L 49.5 24 L 50.5 22 Z "></path><path fill="rgb(196,196,196)" stroke="rgb(196,196,196)" stroke-width="1" opacity="1" d="M 88.5 22 L 87.5 24 L 88.5 22 Z "></path><path fill="rgb(196,196,196)" stroke="rgb(196,196,196)" stroke-width="1" opacity="1" d="M 53.5 23 L 51.5 26 L 53.5 23 Z "></path><path fill="rgb(196,196,196)" stroke="rgb(196,196,196)" stroke-width="1" opacity="1" d="M 90.5 24 L 89.5 26 L 90.5 24 Z "></path><path fill="rgb(196,196,196)" stroke="rgb(196,196,196)" stroke-width="1" opacity="1" d="M 32.5 26 L 36 26.5 L 32.5 27 L 32.5 26 Z "></path><path fill="rgb(196,196,196)" stroke="rgb(196,196,196)" stroke-width="1" opacity="1" d="M 46.5 26 L 50 26.5 L 46.5 27 L 46.5 26 Z "></path><path fill="rgb(196,196,196)" stroke="rgb(196,196,196)" stroke-width="1" opacity="1" d="M 84.5 26 L 88 26.5 L 84.5 27 L 84.5 26 Z "></path><path fill="rgb(196,196,196)" stroke="rgb(196,196,196)" stroke-width="1" opacity="1" d="M 38.5 39 L 41 39.5 L 38.5 40 L 38.5 39 Z "></path><path fill="rgb(196,196,196)" stroke="rgb(196,196,196)" stroke-width="1" opacity="1" d="M 74.5 39 L 77 39.5 L 74.5 40 L 74.5 39 Z "></path><path fill="rgb(196,196,196)" stroke="rgb(196,196,196)" stroke-width="1" opacity="1" d="M 35.5 43 L 36 45 L 38 45.5 L 36.5 46 L 35.5 43 Z "></path><path fill="rgb(196,196,196)" stroke="rgb(196,196,196)" stroke-width="1" opacity="1" d="M 70.5 44 L 69.5 46 L 70.5 44 Z "></path><path fill="rgb(196,196,196)" stroke="rgb(196,196,196)" stroke-width="1" opacity="1" d="M 50.5 45 L 53 45.5 L 50.5 46 L 50.5 45 Z "></path><path fill="rgb(196,196,196)" stroke="rgb(196,196,196)" stroke-width="1" opacity="1" d="M 77.5 45 L 80 45.5 L 77.5 46 L 77.5 45 Z "></path><path fill="rgb(196,196,196)" stroke="rgb(196,196,196)" stroke-width="1" opacity="1" d="M 48.5 47 L 55 48.5 L 48 49 L 48.5 47 Z "></path><path fill="rgb(196,196,196)" stroke="rgb(196,196,196)" stroke-width="1" opacity="1" d="M 68.5 47 L 67.5 49 L 68.5 47 Z "></path><path fill="rgb(196,196,196)" stroke="rgb(196,196,196)" stroke-width="1" opacity="1" d="M 62.5 51 L 61.5 53 L 62.5 51 Z "></path><path fill="rgb(196,196,196)" stroke="rgb(196,196,196)" stroke-width="1" opacity="1" d="M 67.5 51 L 68.5 53 L 67.5 51 Z "></path><path fill="rgb(196,196,196)" stroke="rgb(196,196,196)" stroke-width="1" opacity="1" d="M 54.5 53 L 53.5 55 L 54.5 53 Z "></path><path fill="rgb(196,196,196)" stroke="rgb(196,196,196)" stroke-width="1" opacity="1" d="M 57.5 53 L 58 54.5 L 55 56.5 L 57.5 53 Z "></path><path fill="rgb(196,196,196)" stroke="rgb(196,196,196)" stroke-width="1" opacity="1" d="M 65.5 53 L 66.5 55 L 65.5 53 Z "></path><path fill="rgb(196,196,196)" stroke="rgb(196,196,196)" stroke-width="1" opacity="1" d="M 60.5 54 L 59.5 56 L 60.5 54 Z "></path><path fill="rgb(196,196,196)" stroke="rgb(196,196,196)" stroke-width="1" opacity="1" d="M 69.5 54 L 70.5 56 L 69.5 54 Z "></path><path fill="rgb(196,196,196)" stroke="rgb(196,196,196)" stroke-width="1" opacity="1" d="M 74.5 54 L 76 56.5 L 74 55.5 L 74.5 54 Z "></path><path fill="rgb(196,196,196)" stroke="rgb(196,196,196)" stroke-width="1" opacity="1" d="M 50.5 57 L 53 57.5 L 50.5 58 L 50.5 57 Z "></path><path fill="rgb(196,196,196)" stroke="rgb(196,196,196)" stroke-width="1" opacity="1" d="M 55.5 72 L 58 72.5 L 55.5 73 L 55.5 72 Z "></path><path fill="rgb(196,196,196)" stroke="rgb(196,196,196)" stroke-width="1" opacity="1" d="M 60.5 73 L 62.5 76 L 60.5 73 Z "></path><path fill="rgb(196,196,196)" stroke="rgb(196,196,196)" stroke-width="1" opacity="1" d="M 58.5 75 L 59.5 77 L 58.5 75 Z "></path><path fill="rgb(196,196,196)" stroke="rgb(196,196,196)" stroke-width="1" opacity="1" d="M 60.5 78 L 61 81.5 L 60 81.5 L 60.5 78 Z "></path><path fill="rgb(196,196,196)" stroke="rgb(196,196,196)" stroke-width="1" opacity="1" d="M 63.5 78 L 64 80.5 L 63 80.5 L 63.5 78 Z "></path><path fill="rgb(196,196,196)" stroke="rgb(196,196,196)" stroke-width="1" opacity="1" d="M 42.5 81 L 43.5 83 L 42.5 81 Z "></path><path fill="rgb(196,196,196)" stroke="rgb(196,196,196)" stroke-width="1" opacity="1" d="M 69.5 83 L 73 84.5 L 70.5 85 L 69.5 83 Z "></path><path fill="rgb(196,196,196)" stroke="rgb(196,196,196)" stroke-width="1" opacity="1" d="M 55.5 84 L 58 84.5 L 55.5 85 L 55.5 84 Z "></path><path fill="rgb(196,196,196)" stroke="rgb(196,196,196)" stroke-width="1" opacity="1" d="M 61.5 85 L 60.5 87 L 61.5 85 Z "></path><path fill="rgb(196,196,196)" stroke="rgb(196,196,196)" stroke-width="1" opacity="1" d="M 49.5 104 L 51 106.5 L 50 106.5 L 49.5 104 Z "></path><path fill="rgb(196,196,196)" stroke="rgb(196,196,196)" stroke-width="1" opacity="1" d="M 56.5 104 L 60 104.5 L 56.5 105 L 56.5 104 Z "></path><path fill="rgb(196,196,196)" stroke="rgb(196,196,196)" stroke-width="1" opacity="1" d="M 67.5 104 L 67 105.5 L 66.5 119 L 66 105.5 L 67.5 104 Z "></path><path fill="rgb(196,196,196)" stroke="rgb(196,196,196)" stroke-width="1" opacity="1" d="M 71.5 104 L 75 104.5 L 71.5 105 L 71.5 104 Z "></path><path fill="rgb(196,196,196)" stroke="rgb(196,196,196)" stroke-width="1" opacity="1" d="M 61.5 105 L 62.5 107 L 61.5 105 Z "></path><path fill="rgb(196,196,196)" stroke="rgb(196,196,196)" stroke-width="1" opacity="1" d="M 55.5 110 L 59 110.5 L 55.5 111 L 55.5 110 Z "></path><path fill="rgb(196,196,196)" stroke="rgb(196,196,196)" stroke-width="1" opacity="1" d="M 36.5 112 L 37.5 114 L 36.5 112 Z "></path><path fill="rgb(196,196,196)" stroke="rgb(196,196,196)" stroke-width="1" opacity="1" d="M 55.5 113 L 54.5 115 L 55.5 113 Z "></path><path fill="rgb(196,196,196)" stroke="rgb(196,196,196)" stroke-width="1" opacity="1" d="M 52.5 117 L 53.5 119 L 52.5 117 Z "></path><path fill="rgb(90,90,90)" stroke="rgb(90,90,90)" stroke-width="1" opacity="1" d="M 58.5 12 L 62 14.5 L 60 15.5 Q 62.3 14.3 59.5 13 L 58.5 12 Z "></path><path fill="rgb(90,90,90)" stroke="rgb(90,90,90)" stroke-width="1" opacity="1" d="M 68.5 13 Q 71.5 14.5 68.5 16 L 68.5 13 Z "></path><path fill="rgb(90,90,90)" stroke="rgb(90,90,90)" stroke-width="1" opacity="1" d="M 32.5 14 L 32 15.5 L 33 17.5 L 31 16.5 L 32.5 14 Z "></path><path fill="rgb(90,90,90)" stroke="rgb(90,90,90)" stroke-width="1" opacity="1" d="M 64.5 14 L 65.5 16 L 64.5 14 Z "></path><path fill="rgb(90,90,90)" stroke="rgb(90,90,90)" stroke-width="1" opacity="1" d="M 72.5 14 L 73.5 16 L 72.5 14 Z "></path><path fill="rgb(90,90,90)" stroke="rgb(90,90,90)" stroke-width="1" opacity="1" d="M 79.5 17 L 80 20.5 L 79 20.5 L 79.5 17 Z "></path><path fill="rgb(90,90,90)" stroke="rgb(90,90,90)" stroke-width="1" opacity="1" d="M 29.5 22 L 32 23.5 L 30.5 23 L 29.5 22 Z "></path><path fill="rgb(90,90,90)" stroke="rgb(90,90,90)" stroke-width="1" opacity="1" d="M 44.5 22 L 45.5 24 L 44.5 22 Z "></path><path fill="rgb(90,90,90)" stroke="rgb(90,90,90)" stroke-width="1" opacity="1" d="M 82.5 22 L 83.5 24 L 82.5 22 Z "></path><path fill="rgb(90,90,90)" stroke="rgb(90,90,90)" stroke-width="1" opacity="1" d="M 42.5 23 L 44.5 26 L 42.5 23 Z "></path><path fill="rgb(90,90,90)" stroke="rgb(90,90,90)" stroke-width="1" opacity="1" d="M 80.5 23 L 82.5 26 L 80.5 23 Z "></path><path fill="rgb(90,90,90)" stroke="rgb(90,90,90)" stroke-width="1" opacity="1" d="M 29.5 24 L 30.5 26 L 29.5 24 Z "></path><path fill="rgb(90,90,90)" stroke="rgb(90,90,90)" stroke-width="1" opacity="1" d="M 38.5 24 L 37.5 26 L 38.5 24 Z "></path><path fill="rgb(90,90,90)" stroke="rgb(90,90,90)" stroke-width="1" opacity="1" d="M 40.5 40 L 41 42.5 L 40 42.5 L 40.5 40 Z "></path><path fill="rgb(90,90,90)" stroke="rgb(90,90,90)" stroke-width="1" opacity="1" d="M 74.5 40 L 75 42.5 L 74 42.5 L 74.5 40 Z "></path><path fill="rgb(90,90,90)" stroke="rgb(90,90,90)" stroke-width="1" opacity="1" d="M 61.5 43 L 62.5 45 L 61.5 43 Z "></path><path fill="rgb(90,90,90)" stroke="rgb(90,90,90)" stroke-width="1" opacity="1" d="M 68.5 43 L 67.5 45 L 68.5 43 Z "></path><path fill="rgb(90,90,90)" stroke="rgb(90,90,90)" stroke-width="1" opacity="1" d="M 55.5 44 L 56.5 46 L 55.5 44 Z "></path><path fill="rgb(90,90,90)" stroke="rgb(90,90,90)" stroke-width="1" opacity="1" d="M 40.5 45 L 41 53.5 L 40 53.5 L 40.5 45 Z "></path><path fill="rgb(90,90,90)" stroke="rgb(90,90,90)" stroke-width="1" opacity="1" d="M 53.5 45 L 54.5 47 L 53.5 45 Z "></path><path fill="rgb(90,90,90)" stroke="rgb(90,90,90)" stroke-width="1" opacity="1" d="M 74.5 45 L 75 53.5 L 74 53.5 L 74.5 45 Z "></path><path fill="rgb(90,90,90)" stroke="rgb(90,90,90)" stroke-width="1" opacity="1" d="M 57.5 47 L 58 51 L 48 50.5 L 57 50 L 57.5 47 Z "></path><path fill="rgb(90,90,90)" stroke="rgb(90,90,90)" stroke-width="1" opacity="1" d="M 62.5 48 L 64 50.5 L 63 50.5 L 62.5 48 Z "></path><path fill="rgb(90,90,90)" stroke="rgb(90,90,90)" stroke-width="1" opacity="1" d="M 48.5 53 L 49.5 55 L 48.5 53 Z "></path><path fill="rgb(90,90,90)" stroke="rgb(90,90,90)" stroke-width="1" opacity="1" d="M 38.5 54 L 40 56.5 L 38 55.5 L 38.5 54 Z "></path><path fill="rgb(90,90,90)" stroke="rgb(90,90,90)" stroke-width="1" opacity="1" d="M 66.5 73 L 67 82.5 L 66 82.5 L 66.5 73 Z "></path><path fill="rgb(90,90,90)" stroke="rgb(90,90,90)" stroke-width="1" opacity="1" d="M 68.5 73 L 69 80.5 L 68 80.5 L 68.5 73 Z "></path><path fill="rgb(90,90,90)" stroke="rgb(90,90,90)" stroke-width="1" opacity="1" d="M 75.5 73 L 76 81.5 L 75 81.5 L 75.5 73 Z "></path><path fill="rgb(90,90,90)" stroke="rgb(90,90,90)" stroke-width="1" opacity="1" d="M 77.5 73 L 78 86.5 L 77 86.5 L 77.5 73 Z "></path><path fill="rgb(90,90,90)" stroke="rgb(90,90,90)" stroke-width="1" opacity="1" d="M 54.5 75 L 53.5 77 L 54.5 75 Z "></path><path fill="rgb(90,90,90)" stroke="rgb(90,90,90)" stroke-width="1" opacity="1" d="M 42.5 82 L 43.5 84 L 42.5 82 Z "></path><path fill="rgb(90,90,90)" stroke="rgb(90,90,90)" stroke-width="1" opacity="1" d="M 41.5 88 L 40.5 90 L 39 90.5 L 41 91.5 L 39.5 92 Q 36.5 90.5 39.5 89 L 41.5 88 Z "></path><path fill="rgb(90,90,90)" stroke="rgb(90,90,90)" stroke-width="1" opacity="1" d="M 83.5 101 L 85 101.5 L 83 102 L 82.5 105 L 82 102.5 L 83.5 101 Z "></path><path fill="rgb(90,90,90)" stroke="rgb(90,90,90)" stroke-width="1" opacity="1" d="M 54.5 105 L 53.5 107 L 54.5 105 Z "></path><path fill="rgb(90,90,90)" stroke="rgb(90,90,90)" stroke-width="1" opacity="1" d="M 70.5 107 L 69.5 109 L 70.5 107 Z "></path><path fill="rgb(90,90,90)" stroke="rgb(90,90,90)" stroke-width="1" opacity="1" d="M 82.5 107 L 83 115.5 L 82 115.5 L 82.5 107 Z "></path><path fill="rgb(90,90,90)" stroke="rgb(90,90,90)" stroke-width="1" opacity="1" d="M 84.5 108 L 85 113.5 L 84 113.5 L 84.5 108 Z "></path><path fill="rgb(90,90,90)" stroke="rgb(90,90,90)" stroke-width="1" opacity="1" d="M 75.5 109 L 76 118 L 78 118.5 L 76.5 119 L 75 117.5 L 75.5 109 Z "></path><path fill="rgb(90,90,90)" stroke="rgb(90,90,90)" stroke-width="1" opacity="1" d="M 56.5 112 L 61 112.5 L 56.5 113 L 56.5 112 Z "></path><path fill="rgb(90,90,90)" stroke="rgb(90,90,90)" stroke-width="1" opacity="1" d="M 36.5 113 L 37.5 115 Q 34.7 115.7 36.5 113 Z "></path><path fill="rgb(90,90,90)" stroke="rgb(90,90,90)" stroke-width="1" opacity="1" d="M 54.5 115 L 55.5 117 L 54.5 115 Z "></path><path fill="rgb(90,90,90)" stroke="rgb(90,90,90)" stroke-width="1" opacity="1" d="M 35.5 116 L 36 118 L 38.5 117 L 37.5 119 L 35 117.5 L 35.5 116 Z "></path><path fill="rgb(90,90,90)" stroke="rgb(90,90,90)" stroke-width="1" opacity="1" d="M 60.5 117 L 63 118.5 L 61.5 119 L 60.5 117 Z "></path><path fill="rgb(90,90,90)" stroke="rgb(90,90,90)" stroke-width="1" opacity="1" d="M 44.5 118 L 47 118.5 L 44.5 119 L 44.5 118 Z "></path><path fill="rgb(90,90,90)" stroke="rgb(90,90,90)" stroke-width="1" opacity="1" d="M 84.5 118 L 88 118.5 L 84.5 119 L 84.5 118 Z "></path><path fill="rgb(17,17,17)" stroke="rgb(17,17,17)" stroke-width="1" opacity="1" d="M 84.5 12 L 87 12.5 L 84.5 13 L 84.5 12 Z "></path><path fill="rgb(17,17,17)" stroke="rgb(17,17,17)" stroke-width="1" opacity="1" d="M 37.5 13 L 39 16 L 36 14.5 L 37.5 13 Z "></path><path fill="rgb(17,17,17)" stroke="rgb(17,17,17)" stroke-width="1" opacity="1" d="M 51.5 13 L 52.5 15 L 51.5 13 Z "></path><path fill="rgb(17,17,17)" stroke="rgb(17,17,17)" stroke-width="1" opacity="1" d="M 66.5 13 L 67.5 15 L 66.5 13 Z "></path><path fill="rgb(17,17,17)" stroke="rgb(17,17,17)" stroke-width="1" opacity="1" d="M 45.5 14 L 44.5 16 L 45.5 14 Z "></path><path fill="rgb(17,17,17)" stroke="rgb(17,17,17)" stroke-width="1" opacity="1" d="M 59.5 17 L 60 25.5 L 59 25.5 L 59.5 17 Z "></path><path fill="rgb(17,17,17)" stroke="rgb(17,17,17)" stroke-width="1" opacity="1" d="M 74.5 17 L 75 25.5 L 74 25.5 L 74.5 17 Z "></path><path fill="rgb(17,17,17)" stroke="rgb(17,17,17)" stroke-width="1" opacity="1" d="M 81.5 17 Q 83 19.5 88.5 18 L 90 17.5 L 89.5 19 L 91 19.5 L 82 20 L 81.5 22 L 81 20.5 L 82 18.5 L 81.5 17 Z "></path><path fill="rgb(17,17,17)" stroke="rgb(17,17,17)" stroke-width="1" opacity="1" d="M 43.5 18 L 44 20.5 L 43 20.5 L 43.5 18 Z "></path><path fill="rgb(17,17,17)" stroke="rgb(17,17,17)" stroke-width="1" opacity="1" d="M 51.5 22 L 50.5 24 L 51.5 22 Z "></path><path fill="rgb(17,17,17)" stroke="rgb(17,17,17)" stroke-width="1" opacity="1" d="M 32.5 24 L 31.5 26 L 32.5 24 Z "></path><path fill="rgb(17,17,17)" stroke="rgb(17,17,17)" stroke-width="1" opacity="1" d="M 35.5 24 L 36.5 26 L 35.5 24 Z "></path><path fill="rgb(17,17,17)" stroke="rgb(17,17,17)" stroke-width="1" opacity="1" d="M 84.5 24 L 87 24.5 L 83.5 26 L 84.5 24 Z "></path><path fill="rgb(17,17,17)" stroke="rgb(17,17,17)" stroke-width="1" opacity="1" d="M 38.5 40 L 39 42.5 L 36.5 44 L 36.5 43 Q 39.4 43.7 38.5 40 Z "></path><path fill="rgb(17,17,17)" stroke="rgb(17,17,17)" stroke-width="1" opacity="1" d="M 76.5 40 L 77 43 L 80 44.5 L 78.5 44 L 76 42.5 L 76.5 40 Z "></path><path fill="rgb(17,17,17)" stroke="rgb(17,17,17)" stroke-width="1" opacity="1" d="M 40.5 43 L 43 43.5 L 40.5 44 L 40.5 43 Z "></path><path fill="rgb(17,17,17)" stroke="rgb(17,17,17)" stroke-width="1" opacity="1" d="M 50.5 43 L 54 43.5 L 50.5 44 L 50.5 43 Z "></path><path fill="rgb(17,17,17)" stroke="rgb(17,17,17)" stroke-width="1" opacity="1" d="M 38.5 45 L 39 53.5 L 38 53.5 L 38.5 45 Z "></path><path fill="rgb(17,17,17)" stroke="rgb(17,17,17)" stroke-width="1" opacity="1" d="M 49.5 45 L 48.5 47 L 49.5 45 Z "></path><path fill="rgb(17,17,17)" stroke="rgb(17,17,17)" stroke-width="1" opacity="1" d="M 76.5 45 L 77 53.5 L 76 53.5 L 76.5 45 Z "></path><path fill="rgb(17,17,17)" stroke="rgb(17,17,17)" stroke-width="1" opacity="1" d="M 66.5 46 L 67.5 48 L 66.5 46 Z "></path><path fill="rgb(17,17,17)" stroke="rgb(17,17,17)" stroke-width="1" opacity="1" d="M 62.5 52 L 63.5 54 L 62.5 52 Z "></path><path fill="rgb(17,17,17)" stroke="rgb(17,17,17)" stroke-width="1" opacity="1" d="M 67.5 52 L 66.5 54 L 67.5 52 Z "></path><path fill="rgb(17,17,17)" stroke="rgb(17,17,17)" stroke-width="1" opacity="1" d="M 51.5 55 L 54 56.5 L 52.5 56 L 51.5 55 Z "></path><path fill="rgb(17,17,17)" stroke="rgb(17,17,17)" stroke-width="1" opacity="1" d="M 69.5 55 L 70 57 L 68 56.5 L 69.5 55 Z "></path><path fill="rgb(17,17,17)" stroke="rgb(17,17,17)" stroke-width="1" opacity="1" d="M 38.5 73 L 39.5 75 L 38.5 73 Z "></path><path fill="rgb(17,17,17)" stroke="rgb(17,17,17)" stroke-width="1" opacity="1" d="M 40.5 77 L 39.5 79 L 40.5 77 Z "></path><path fill="rgb(17,17,17)" stroke="rgb(17,17,17)" stroke-width="1" opacity="1" d="M 41.5 80 L 40.5 82 L 41.5 80 Z "></path><path fill="rgb(17,17,17)" stroke="rgb(17,17,17)" stroke-width="1" opacity="1" d="M 42.5 83 L 41.5 85 L 42.5 83 Z "></path><path fill="rgb(17,17,17)" stroke="rgb(17,17,17)" stroke-width="1" opacity="1" d="M 53.5 83 L 54.5 85 L 53.5 83 Z "></path><path fill="rgb(17,17,17)" stroke="rgb(17,17,17)" stroke-width="1" opacity="1" d="M 59.5 84 L 62 84.5 Q 59.9 87.8 59.5 84 Z "></path><path fill="rgb(17,17,17)" stroke="rgb(17,17,17)" stroke-width="1" opacity="1" d="M 55.5 86 L 59 86.5 L 55.5 87 L 55.5 86 Z "></path><path fill="rgb(17,17,17)" stroke="rgb(17,17,17)" stroke-width="1" opacity="1" d="M 69.5 86 L 73 86.5 L 69.5 87 L 69.5 86 Z "></path><path fill="rgb(17,17,17)" stroke="rgb(17,17,17)" stroke-width="1" opacity="1" d="M 55.5 105 L 59 106.5 L 56.5 107 L 55.5 105 Z "></path><path fill="rgb(17,17,17)" stroke="rgb(17,17,17)" stroke-width="1" opacity="1" d="M 68.5 105 L 69.5 107 Q 66.7 107.7 68.5 105 Z "></path><path fill="rgb(17,17,17)" stroke="rgb(17,17,17)" stroke-width="1" opacity="1" d="M 71.5 106 L 74 106.5 L 71.5 107 L 71.5 106 Z "></path><path fill="rgb(17,17,17)" stroke="rgb(17,17,17)" stroke-width="1" opacity="1" d="M 85.5 106 L 87 106.5 L 84.5 108 L 85.5 106 Z "></path><path fill="rgb(17,17,17)" stroke="rgb(17,17,17)" stroke-width="1" opacity="1" d="M 34.5 107 L 33.5 109 L 34.5 107 Z "></path><path fill="rgb(17,17,17)" stroke="rgb(17,17,17)" stroke-width="1" opacity="1" d="M 47.5 109 L 48.5 111 L 47.5 109 Z "></path><path fill="rgb(17,17,17)" stroke="rgb(17,17,17)" stroke-width="1" opacity="1" d="M 77.5 109 L 78 117.5 L 77 117.5 L 77.5 109 Z "></path><path fill="rgb(17,17,17)" stroke="rgb(17,17,17)" stroke-width="1" opacity="1" d="M 68.5 110 L 69 117.5 L 68 117.5 L 68.5 110 Z "></path><path fill="rgb(17,17,17)" stroke="rgb(17,17,17)" stroke-width="1" opacity="1" d="M 35.5 111 L 34.5 113 L 35.5 111 Z "></path><path fill="rgb(17,17,17)" stroke="rgb(17,17,17)" stroke-width="1" opacity="1" d="M 46.5 113 L 47.5 115 L 46.5 113 Z "></path><path fill="rgb(0,0,0)" stroke="rgb(0,0,0)" stroke-width="1" opacity="1" d="M 31.5 13 Q 36.8 11.8 38 14.5 L 36.5 14 Q 32 13 31 15.5 L 32.5 18 L 39 20 Q 40 23.8 37.5 25 L 32.5 26 L 29 23.5 L 30.5 23 Q 31.3 25.8 35.5 25 Q 40.5 22.5 35.5 20 L 30 17.5 Q 29.3 13.8 31.5 13 Z "></path><path fill="rgb(0,0,0)" stroke="rgb(0,0,0)" stroke-width="1" opacity="1" d="M 44.5 13 Q 51.5 11.5 53 15.5 L 54 20.5 L 51.5 25 L 46.5 26 L 43 23.5 L 42 16.5 L 44.5 13 Z M 46 14 L 43 19 L 44 23 L 48 25 L 51 24 Q 54 23 52 17 Q 51 13 46 14 Z "></path><path fill="rgb(0,0,0)" stroke="rgb(0,0,0)" stroke-width="1" opacity="1" d="M 58.5 13 L 60.5 14 L 65.5 13 Q 67.5 17 69.5 13 Q 75.6 11.8 75 14.5 L 76 15.5 L 76 25.5 L 75 25.5 Q 76.7 16.8 72.5 14 Q 68.8 13.3 68 15.5 L 68 25.5 L 66 26 L 66 15.5 L 64.5 14 Q 60.8 13.3 60 15.5 L 58.5 26 L 58.5 13 Z "></path><path fill="rgb(0,0,0)" stroke="rgb(0,0,0)" stroke-width="1" opacity="1" d="M 82.5 13 Q 88.5 11.5 90 14.5 L 91 19 L 89 18.5 L 89 16.5 L 87.5 14 Q 83 13 82 15.5 L 81 17.5 L 82 19.5 L 81 21.5 Q 81.5 25.5 86.5 25 L 90.5 23 L 89.5 25 L 84.5 26 L 80 22.5 Q 78.8 15.3 82.5 13 Z "></path><path fill="rgb(0,0,0)" stroke="rgb(0,0,0)" stroke-width="1" opacity="1" d="M 39.5 40 L 40 44 L 43 44.5 L 40 45 L 40 54.5 L 43 55 L 43 57 L 39 56 L 39 45.5 L 36.5 45 L 36.5 44 L 39 42.5 L 39.5 40 Z "></path><path fill="rgb(0,0,0)" stroke="rgb(0,0,0)" stroke-width="1" opacity="1" d="M 75.5 40 L 77.5 44 L 79 44.5 L 76 45 L 76 53.5 L 77.5 55 Q 79.8 54.3 79 56.5 L 77.5 56 L 75 56 L 75 45.5 L 73.5 45 L 73.5 44 L 75 44 L 75.5 40 Z "></path><path fill="rgb(0,0,0)" stroke="rgb(0,0,0)" stroke-width="1" opacity="1" d="M 48.5 44 Q 55.5 42.5 57 46.5 L 57 50 L 48.5 50 Q 45.7 51.3 48 52.5 L 49.5 55 L 52.5 56 L 56.5 54 L 55.5 56 L 50.5 57 L 47 54.5 L 46 47.5 L 48.5 44 Z M 50 45 L 48 49 L 56 49 L 56 48 Q 55 44 50 45 Z "></path><path fill="rgb(0,0,0)" stroke="rgb(0,0,0)" stroke-width="1" opacity="1" d="M 60.5 44 L 63 45.5 L 64.5 48 L 67 46.5 L 68.5 44 L 69 45.5 L 66 50.5 L 69 55.5 L 67 54.5 L 65.5 52 L 63 53.5 L 61.5 56 L 60 55.5 L 64 49.5 L 60.5 44 Z "></path><path fill="rgb(0,0,0)" stroke="rgb(0,0,0)" stroke-width="1" opacity="1" d="M 48.5 73 L 49 74.5 L 41.5 91 L 39 90.5 L 42 88.5 L 42 84.5 L 38 74.5 L 40 75.5 L 42 84 Q 44.7 85.1 44 82.5 L 48.5 73 Z "></path><path fill="rgb(0,0,0)" stroke="rgb(0,0,0)" stroke-width="1" opacity="1" d="M 55.5 73 L 61 74 L 63 81.5 L 59.5 86 Q 53.5 87.5 52 84.5 L 51 77.5 L 53.5 74 L 55.5 73 Z M 57 74 L 55 75 L 52 80 L 53 84 Q 55 86 60 85 L 61 83 Q 62 77 60 75 L 57 74 Z "></path><path fill="rgb(0,0,0)" stroke="rgb(0,0,0)" stroke-width="1" opacity="1" d="M 67.5 74 Q 67 81.6 69 85 Q 74.5 86.3 76 82.5 L 76.5 74 L 77 85.5 L 75.5 85 L 68.5 86 L 67 84.5 L 67.5 74 Z "></path><path fill="rgb(0,0,0)" stroke="rgb(0,0,0)" stroke-width="1" opacity="1" d="M 83.5 102 L 84 105 L 87 105.5 L 84 107.5 L 84 115.5 L 85.5 117 L 87 117.5 L 84.5 118 L 83 116.5 L 83 107.5 L 81 105.5 L 83 105 L 83.5 102 Z "></path><path fill="rgb(0,0,0)" stroke="rgb(0,0,0)" stroke-width="1" opacity="1" d="M 33.5 105 L 36.5 116 L 38.5 113 L 39 115.5 L 38 118 Q 35.3 119.1 36 116.5 L 33 107.5 L 33.5 105 Z "></path><path fill="rgb(0,0,0)" stroke="rgb(0,0,0)" stroke-width="1" opacity="1" d="M 41.5 105 L 45.5 116 L 49.5 105 L 50 106.5 L 47 118 Q 42.5 119.8 44 114.5 L 41.5 108 L 39.5 112 L 39 109.5 L 41.5 105 Z "></path><path fill="rgb(0,0,0)" stroke="rgb(0,0,0)" stroke-width="1" opacity="1" d="M 56.5 105 L 62 106 Q 63.9 110.3 63 118 L 59.5 117 L 53 118 L 52 114.5 L 53 112 L 61 111 L 61 107 L 59.5 107 L 56.5 106 L 53.5 108 L 54.5 106 L 56.5 105 Z M 56 112 L 54 114 L 56 117 L 61 116 Q 63 110 56 112 Z "></path><path fill="rgb(0,0,0)" stroke="rgb(0,0,0)" stroke-width="1" opacity="1" d="M 67.5 105 L 68 107 L 71.5 105 L 74.5 105 L 77 107.5 L 77 117.5 L 76 117.5 L 76 108.5 L 73.5 106 Q 69.5 105.5 69 108.5 L 67.5 118 L 67.5 105 Z "></path></svg>