<svg width="128" height="128" version="1.1" xmlns="http://www.w3.org/2000/svg" desc="Created with imagetracer.js version 1.2.5"><path fill="rgb(246,246,246)" stroke="rgb(246,246,246)" stroke-width="1" opacity="1" d="M 67.5 9 L 68.5 11 L 67.5 9 Z "></path><path fill="rgb(246,246,246)" stroke="rgb(246,246,246)" stroke-width="1" opacity="1" d="M 26.5 11 L 30 11.5 L 26.5 12 L 26.5 11 Z "></path><path fill="rgb(246,246,246)" stroke="rgb(246,246,246)" stroke-width="1" opacity="1" d="M 54.5 11 L 57 11.5 L 54.5 12 L 54.5 11 Z "></path><path fill="rgb(246,246,246)" stroke="rgb(246,246,246)" stroke-width="1" opacity="1" d="M 110.5 11 L 113 11.5 L 110.5 12 L 110.5 11 Z "></path><path fill="rgb(246,246,246)" stroke="rgb(246,246,246)" stroke-width="1" opacity="1" d="M 16.5 12 L 14.5 15 L 16.5 12 Z "></path><path fill="rgb(246,246,246)" stroke="rgb(246,246,246)" stroke-width="1" opacity="1" d="M 44.5 12 L 41.5 16 L 44.5 12 Z "></path><path fill="rgb(246,246,246)" stroke="rgb(246,246,246)" stroke-width="1" opacity="1" d="M 68.5 12 L 69 20.5 L 68 20.5 L 68.5 12 Z "></path><path fill="rgb(246,246,246)" stroke="rgb(246,246,246)" stroke-width="1" opacity="1" d="M 22.5 16 L 25 16.5 L 22.5 17 L 22.5 16 Z "></path><path fill="rgb(246,246,246)" stroke="rgb(246,246,246)" stroke-width="1" opacity="1" d="M 95.5 16 L 96 25.5 L 95 25.5 L 95.5 16 Z "></path><path fill="rgb(246,246,246)" stroke="rgb(246,246,246)" stroke-width="1" opacity="1" d="M 43.5 19 L 44.5 21 L 43.5 19 Z "></path><path fill="rgb(246,246,246)" stroke="rgb(246,246,246)" stroke-width="1" opacity="1" d="M 16.5 20 L 17.5 22 L 16.5 20 Z "></path><path fill="rgb(246,246,246)" stroke="rgb(246,246,246)" stroke-width="1" opacity="1" d="M 81.5 20 L 89 20.5 L 81.5 21 L 81.5 20 Z "></path><path fill="rgb(246,246,246)" stroke="rgb(246,246,246)" stroke-width="1" opacity="1" d="M 41.5 22 L 42.5 24 L 41.5 22 Z "></path><path fill="rgb(246,246,246)" stroke="rgb(246,246,246)" stroke-width="1" opacity="1" d="M 14.5 23 L 15.5 25 L 14.5 23 Z "></path><path fill="rgb(246,246,246)" stroke="rgb(246,246,246)" stroke-width="1" opacity="1" d="M 50.5 24 L 51.5 26 L 50.5 24 Z "></path><path fill="rgb(246,246,246)" stroke="rgb(246,246,246)" stroke-width="1" opacity="1" d="M 116.5 24 L 115.5 26 L 116.5 24 Z "></path><path fill="rgb(246,246,246)" stroke="rgb(246,246,246)" stroke-width="1" opacity="1" d="M 28.5 43 L 30 43.5 L 27.5 45 L 28.5 43 Z "></path><path fill="rgb(246,246,246)" stroke="rgb(246,246,246)" stroke-width="1" opacity="1" d="M 42.5 43 L 44 43.5 L 41.5 45 L 42.5 43 Z "></path><path fill="rgb(246,246,246)" stroke="rgb(246,246,246)" stroke-width="1" opacity="1" d="M 58.5 43 L 61 43.5 L 58.5 44 L 58.5 43 Z "></path><path fill="rgb(246,246,246)" stroke="rgb(246,246,246)" stroke-width="1" opacity="1" d="M 49.5 44 L 50 47.5 L 49 47.5 L 49.5 44 Z "></path><path fill="rgb(246,246,246)" stroke="rgb(246,246,246)" stroke-width="1" opacity="1" d="M 66.5 44 L 67 48.5 L 66 48.5 L 66.5 44 Z "></path><path fill="rgb(246,246,246)" stroke="rgb(246,246,246)" stroke-width="1" opacity="1" d="M 75.5 44 L 76 57.5 L 72.5 59 L 72.5 58 L 75 57.5 L 75.5 44 Z "></path><path fill="rgb(246,246,246)" stroke="rgb(246,246,246)" stroke-width="1" opacity="1" d="M 81.5 44 L 82 47.5 L 81 47.5 L 81.5 44 Z "></path><path fill="rgb(246,246,246)" stroke="rgb(246,246,246)" stroke-width="1" opacity="1" d="M 100.5 44 L 101 50.5 L 100 50.5 L 100.5 44 Z "></path><path fill="rgb(246,246,246)" stroke="rgb(246,246,246)" stroke-width="1" opacity="1" d="M 46.5 45 L 47.5 47 L 46.5 45 Z "></path><path fill="rgb(246,246,246)" stroke="rgb(246,246,246)" stroke-width="1" opacity="1" d="M 60.5 45 L 58.5 48 L 60.5 45 Z "></path><path fill="rgb(246,246,246)" stroke="rgb(246,246,246)" stroke-width="1" opacity="1" d="M 81.5 51 L 82 54.5 L 81 54.5 L 81.5 51 Z "></path><path fill="rgb(246,246,246)" stroke="rgb(246,246,246)" stroke-width="1" opacity="1" d="M 84.5 51 L 85.5 53 L 84.5 51 Z "></path><path fill="rgb(246,246,246)" stroke="rgb(246,246,246)" stroke-width="1" opacity="1" d="M 17.5 52 L 23 52.5 L 17.5 53 L 17.5 52 Z "></path><path fill="rgb(246,246,246)" stroke="rgb(246,246,246)" stroke-width="1" opacity="1" d="M 67.5 52 L 72 52.5 L 67 53 Q 68.3 57.6 65.5 59 L 63 58.5 L 66 58 Q 64.8 53.4 67.5 52 Z "></path><path fill="rgb(246,246,246)" stroke="rgb(246,246,246)" stroke-width="1" opacity="1" d="M 44.5 53 L 43.5 55 L 44.5 53 Z "></path><path fill="rgb(246,246,246)" stroke="rgb(246,246,246)" stroke-width="1" opacity="1" d="M 49.5 54 L 50 58 L 53 58.5 L 50.5 59 Q 47.8 57.8 49.5 54 Z "></path><path fill="rgb(246,246,246)" stroke="rgb(246,246,246)" stroke-width="1" opacity="1" d="M 14.5 58 L 17 58.5 L 14.5 59 L 14.5 58 Z "></path><path fill="rgb(246,246,246)" stroke="rgb(246,246,246)" stroke-width="1" opacity="1" d="M 23.5 58 L 26 58.5 L 23.5 59 L 23.5 58 Z "></path><path fill="rgb(246,246,246)" stroke="rgb(246,246,246)" stroke-width="1" opacity="1" d="M 41.5 58 L 45 58.5 L 41.5 59 L 41.5 58 Z "></path><path fill="rgb(246,246,246)" stroke="rgb(246,246,246)" stroke-width="1" opacity="1" d="M 58.5 58 L 61 58.5 L 58.5 59 L 58.5 58 Z "></path><path fill="rgb(246,246,246)" stroke="rgb(246,246,246)" stroke-width="1" opacity="1" d="M 78.5 58 L 85 58.5 L 78.5 59 L 78.5 58 Z "></path><path fill="rgb(246,246,246)" stroke="rgb(246,246,246)" stroke-width="1" opacity="1" d="M 91.5 58 L 94 58.5 L 91.5 59 L 91.5 58 Z "></path><path fill="rgb(246,246,246)" stroke="rgb(246,246,246)" stroke-width="1" opacity="1" d="M 97.5 58 L 100 58.5 L 97.5 59 L 97.5 58 Z "></path><path fill="rgb(246,246,246)" stroke="rgb(246,246,246)" stroke-width="1" opacity="1" d="M 106.5 58 L 109 58.5 L 106.5 59 L 106.5 58 Z "></path><path fill="rgb(246,246,246)" stroke="rgb(246,246,246)" stroke-width="1" opacity="1" d="M 34.5 61 L 33.5 63 L 34.5 61 Z "></path><path fill="rgb(246,246,246)" stroke="rgb(246,246,246)" stroke-width="1" opacity="1" d="M 37.5 75 L 45 75.5 L 37.5 76 L 37.5 75 Z "></path><path fill="rgb(246,246,246)" stroke="rgb(246,246,246)" stroke-width="1" opacity="1" d="M 65.5 75 Q 69.3 74.3 70 76.5 L 68.5 76 Q 64.5 76.8 65.5 75 Z "></path><path fill="rgb(246,246,246)" stroke="rgb(246,246,246)" stroke-width="1" opacity="1" d="M 78.5 75 L 82 76.5 L 80.5 76 L 77.5 77 L 78.5 75 Z "></path><path fill="rgb(246,246,246)" stroke="rgb(246,246,246)" stroke-width="1" opacity="1" d="M 46.5 76 L 47.5 78 L 46.5 76 Z "></path><path fill="rgb(246,246,246)" stroke="rgb(246,246,246)" stroke-width="1" opacity="1" d="M 51.5 82 L 50.5 84 L 51.5 82 Z "></path><path fill="rgb(246,246,246)" stroke="rgb(246,246,246)" stroke-width="1" opacity="1" d="M 68.5 83 L 69.5 85 L 68.5 83 Z "></path><path fill="rgb(246,246,246)" stroke="rgb(246,246,246)" stroke-width="1" opacity="1" d="M 50.5 88 L 51.5 90 L 50.5 88 Z "></path><path fill="rgb(246,246,246)" stroke="rgb(246,246,246)" stroke-width="1" opacity="1" d="M 25.5 108 L 26 110 L 30 110.5 L 26.5 111 L 25.5 108 Z "></path><path fill="rgb(246,246,246)" stroke="rgb(246,246,246)" stroke-width="1" opacity="1" d="M 34.5 110 Q 38.3 109.3 39 111.5 L 37.5 111 L 34 111.5 L 34 121.5 L 33 121.5 L 33 111.5 L 34.5 110 Z "></path><path fill="rgb(246,246,246)" stroke="rgb(246,246,246)" stroke-width="1" opacity="1" d="M 80.5 110 L 84 110.5 L 80 111 L 79.5 113 L 79 111.5 L 80.5 110 Z "></path><path fill="rgb(246,246,246)" stroke="rgb(246,246,246)" stroke-width="1" opacity="1" d="M 88.5 110 L 92 110.5 L 88.5 111 L 88.5 110 Z "></path><path fill="rgb(246,246,246)" stroke="rgb(246,246,246)" stroke-width="1" opacity="1" d="M 63.5 118 L 65.5 121 L 63.5 118 Z "></path><path fill="rgb(246,246,246)" stroke="rgb(246,246,246)" stroke-width="1" opacity="1" d="M 67.5 119 L 69.5 122 L 67.5 119 Z "></path><path fill="rgb(246,246,246)" stroke="rgb(246,246,246)" stroke-width="1" opacity="1" d="M 60.5 120 L 61.5 122 L 60.5 120 Z "></path><path fill="rgb(246,246,246)" stroke="rgb(246,246,246)" stroke-width="1" opacity="1" d="M 43.5 122 L 46 122.5 L 43.5 123 L 43.5 122 Z "></path><path fill="rgb(246,246,246)" stroke="rgb(246,246,246)" stroke-width="1" opacity="1" d="M 72.5 122 L 75 122.5 L 72.5 123 L 72.5 122 Z "></path><path fill="rgb(255,255,255)" stroke="rgb(255,255,255)" stroke-width="1" opacity="1" d="M 0 0 L 128 0 L 128 128 L 0 128 L 0 0 Z M 66 6 L 67 10 Q 68 12 74 11 Q 77 10 76 6 Q 72 5 73 8 Q 69 9 70 6 L 66 6 Z M 27 11 L 25 12 Q 21 13 22 17 Q 25 18 27 15 Q 31 14 30 17 L 24 18 L 21 24 Q 22 28 29 27 L 31 27 L 34 27 L 34 15 Q 33 10 27 11 Z M 55 11 L 49 16 L 50 25 Q 52 28 59 27 L 63 22 L 62 15 Q 60 11 55 11 Z M 111 11 L 108 12 L 104 17 Q 103 25 109 27 L 116 26 Q 119 23 118 16 Q 116 11 111 11 Z M 9 12 L 9 27 L 12 27 L 13 21 L 14 24 Q 15 28 21 27 L 18 22 L 15 19 L 21 13 L 17 12 L 14 16 L 12 17 Q 14 10 9 12 Z M 37 12 L 37 27 L 40 27 L 41 21 L 41 23 Q 43 28 49 27 L 45 21 L 43 19 L 49 13 L 45 12 L 41 17 L 40 17 Q 42 10 37 12 Z M 65 12 L 65 27 L 68 27 L 73 20 L 74 20 L 74 27 L 78 27 L 78 13 L 75 12 L 70 19 L 69 19 L 69 12 L 65 12 Z M 91 12 Q 89 17 96 15 L 95 17 L 95 26 L 97 27 L 99 27 L 99 15 L 104 15 L 104 12 L 91 12 Z M 80 17 L 82 21 Q 88 23 90 20 L 90 17 L 80 17 Z M 100 37 L 98 39 L 99 42 L 106 43 Q 109 42 108 37 L 104 40 Q 101 41 102 39 L 100 37 Z M 16 43 L 14 45 L 14 59 L 17 59 L 17 53 L 23 53 L 23 59 L 26 59 L 26 45 Q 25 42 23 45 L 23 49 L 17 49 Q 18 44 16 43 Z M 29 43 L 27 45 L 32 57 Q 34 62 29 60 Q 27 65 34 63 L 37 58 L 41 46 L 46 50 L 46 52 L 41 58 Q 40 60 45 59 L 47 56 L 50 54 L 49 58 L 53 59 L 54 53 L 54 55 L 59 59 L 61 59 L 61 57 L 56 51 L 61 46 L 61 43 L 59 43 L 54 48 L 53 45 Q 52 42 51 44 Q 47 43 49 48 L 50 49 L 48 47 L 44 43 L 42 44 L 40 43 L 37 44 L 35 53 L 32 44 L 29 43 Z M 65 43 L 63 45 L 63 59 L 66 59 Q 68 58 67 53 L 72 53 L 72 59 L 75 59 L 76 58 L 76 44 L 74 43 Q 71 44 72 49 Q 65 52 67 44 L 65 43 Z M 80 43 L 78 45 L 78 59 Q 86 61 89 56 Q 90 49 87 48 Q 80 50 82 44 L 80 43 Z M 92 43 L 90 45 L 90 58 L 92 59 L 94 59 L 94 45 L 92 43 Z M 99 43 L 97 45 L 97 59 L 100 59 L 104 53 L 106 52 L 106 59 L 109 59 L 110 58 L 110 44 L 108 43 L 102 51 L 100 52 L 101 51 L 101 44 L 99 43 Z M 37 75 L 37 90 L 47 90 L 49 87 L 47 83 L 48 78 Q 45 73 37 75 Z M 55 75 L 53 76 L 50 80 L 55 79 Q 58 78 59 81 L 52 82 Q 49 83 50 89 L 54 91 L 58 90 L 62 90 L 62 78 Q 60 74 55 75 Z M 65 75 L 65 90 L 69 90 L 70 85 L 71 89 L 75 90 L 78 84 L 78 90 L 82 90 L 82 77 L 79 75 L 74 85 L 70 77 Q 69 74 65 75 Z M 27 107 L 25 109 L 27 111 L 30 111 L 30 122 L 34 122 L 34 111 L 38 111 L 38 107 L 27 107 Z M 43 107 L 40 108 L 38 112 L 39 120 L 44 123 L 49 122 Q 52 121 51 117 Q 48 116 47 119 Q 43 120 42 118 L 43 116 L 52 116 L 51 111 Q 50 106 43 107 Z M 54 107 L 54 122 L 57 122 L 58 117 L 62 122 Q 67 124 66 121 L 60 115 L 66 109 Q 67 105 63 107 L 57 112 Q 59 105 54 107 Z M 71 107 L 66 114 L 67 120 L 73 123 L 79 121 L 80 117 Q 76 116 75 119 Q 71 119 70 117 L 71 111 L 76 111 Q 75 114 80 113 L 79 110 Q 77 106 71 107 Z M 80 107 L 80 111 L 84 112 L 84 122 L 88 122 L 88 111 L 92 111 L 92 107 L 80 107 Z "></path><path fill="rgb(255,255,255)" stroke="rgb(255,255,255)" stroke-width="1" opacity="1" d="M 54.5 15 Q 58.3 14.3 59 16.5 Q 60.3 21.8 57.5 23 Q 53.8 23.8 53 21.5 Q 51.8 16.3 54.5 15 Z "></path><path fill="rgb(255,255,255)" stroke="rgb(255,255,255)" stroke-width="1" opacity="1" d="M 109.5 15 Q 113.3 14.3 114 16.5 Q 115.3 21.8 112.5 23 Q 108.8 23.8 108 21.5 Q 106.8 16.3 109.5 15 Z "></path><path fill="rgb(255,255,255)" stroke="rgb(255,255,255)" stroke-width="1" opacity="1" d="M 25 21 L 30 21.5 Q 28.3 25.7 26.5 23 Q 23.9 23.7 25 21 Z "></path><path fill="rgb(255,255,255)" stroke="rgb(255,255,255)" stroke-width="1" opacity="1" d="M 82 51 L 86 53.5 L 82 55 L 82 51 Z "></path><path fill="rgb(255,255,255)" stroke="rgb(255,255,255)" stroke-width="1" opacity="1" d="M 40 79 Q 45.2 77.3 44 81 Q 38.8 82.7 40 79 Z "></path><path fill="rgb(255,255,255)" stroke="rgb(255,255,255)" stroke-width="1" opacity="1" d="M 40 84 L 45 85 L 45 87 L 40 87 L 40 84 Z "></path><path fill="rgb(255,255,255)" stroke="rgb(255,255,255)" stroke-width="1" opacity="1" d="M 55.5 84 L 59 84.5 L 58 87 L 54 87 L 54 85.5 L 55.5 84 Z "></path><path fill="rgb(255,255,255)" stroke="rgb(255,255,255)" stroke-width="1" opacity="1" d="M 43.5 111 Q 47.3 110.3 48 112.5 L 42.5 113 L 43.5 111 Z "></path><path fill="rgb(138,138,138)" stroke="rgb(138,138,138)" stroke-width="1" opacity="1" d="M 69.5 7 L 70.5 9 L 69.5 7 Z "></path><path fill="rgb(138,138,138)" stroke="rgb(138,138,138)" stroke-width="1" opacity="1" d="M 70.5 10 L 73 10.5 L 70.5 11 L 70.5 10 Z "></path><path fill="rgb(138,138,138)" stroke="rgb(138,138,138)" stroke-width="1" opacity="1" d="M 39.5 12 L 40.5 17 L 43 15.5 L 39 18 L 39.5 12 Z "></path><path fill="rgb(138,138,138)" stroke="rgb(138,138,138)" stroke-width="1" opacity="1" d="M 19.5 13 L 14.5 19 L 19.5 13 Z "></path><path fill="rgb(138,138,138)" stroke="rgb(138,138,138)" stroke-width="1" opacity="1" d="M 47.5 13 L 42.5 19 L 47.5 13 Z "></path><path fill="rgb(138,138,138)" stroke="rgb(138,138,138)" stroke-width="1" opacity="1" d="M 65.5 13 L 66 25.5 L 65 25.5 L 65.5 13 Z "></path><path fill="rgb(138,138,138)" stroke="rgb(138,138,138)" stroke-width="1" opacity="1" d="M 15.5 14 L 12.5 18 L 15.5 14 Z "></path><path fill="rgb(138,138,138)" stroke="rgb(138,138,138)" stroke-width="1" opacity="1" d="M 29.5 14 L 30.5 16 L 29.5 14 Z "></path><path fill="rgb(138,138,138)" stroke="rgb(138,138,138)" stroke-width="1" opacity="1" d="M 57.5 14 L 58.5 16 L 57.5 14 Z "></path><path fill="rgb(138,138,138)" stroke="rgb(138,138,138)" stroke-width="1" opacity="1" d="M 109.5 14 L 108.5 16 L 109.5 14 Z "></path><path fill="rgb(138,138,138)" stroke="rgb(138,138,138)" stroke-width="1" opacity="1" d="M 98.5 15 L 99 25.5 L 98 25.5 L 98.5 15 Z "></path><path fill="rgb(138,138,138)" stroke="rgb(138,138,138)" stroke-width="1" opacity="1" d="M 49.5 17 L 50 20.5 L 49 20.5 L 49.5 17 Z "></path><path fill="rgb(138,138,138)" stroke="rgb(138,138,138)" stroke-width="1" opacity="1" d="M 81.5 17 Q 88.3 15.2 90 18.5 L 88.5 18 Q 82.3 16.3 80.5 19 L 81.5 17 Z "></path><path fill="rgb(138,138,138)" stroke="rgb(138,138,138)" stroke-width="1" opacity="1" d="M 117.5 17 L 118 20.5 L 117 20.5 L 117.5 17 Z "></path><path fill="rgb(138,138,138)" stroke="rgb(138,138,138)" stroke-width="1" opacity="1" d="M 12.5 20 L 14.5 23 L 12.5 20 Z "></path><path fill="rgb(138,138,138)" stroke="rgb(138,138,138)" stroke-width="1" opacity="1" d="M 25.5 20 L 25 21.5 L 24.5 23 L 24 21.5 L 25.5 20 Z "></path><path fill="rgb(138,138,138)" stroke="rgb(138,138,138)" stroke-width="1" opacity="1" d="M 39 20 L 42 21.5 L 40 21.5 L 39.5 26 L 39 20 Z "></path><path fill="rgb(138,138,138)" stroke="rgb(138,138,138)" stroke-width="1" opacity="1" d="M 16.5 21 L 19.5 25 L 16.5 21 Z "></path><path fill="rgb(138,138,138)" stroke="rgb(138,138,138)" stroke-width="1" opacity="1" d="M 44.5 21 L 46.5 24 L 44.5 21 Z "></path><path fill="rgb(138,138,138)" stroke="rgb(138,138,138)" stroke-width="1" opacity="1" d="M 22.5 24 L 23.5 26 L 22.5 24 Z "></path><path fill="rgb(138,138,138)" stroke="rgb(138,138,138)" stroke-width="1" opacity="1" d="M 60.5 24 L 59.5 26 L 60.5 24 Z "></path><path fill="rgb(138,138,138)" stroke="rgb(138,138,138)" stroke-width="1" opacity="1" d="M 106.5 24 L 107.5 26 L 106.5 24 Z "></path><path fill="rgb(138,138,138)" stroke="rgb(138,138,138)" stroke-width="1" opacity="1" d="M 101.5 39 L 104 40.5 L 102.5 41 L 101.5 39 Z "></path><path fill="rgb(138,138,138)" stroke="rgb(138,138,138)" stroke-width="1" opacity="1" d="M 99.5 40 L 100.5 42 L 99.5 40 Z "></path><path fill="rgb(138,138,138)" stroke="rgb(138,138,138)" stroke-width="1" opacity="1" d="M 52.5 44 L 54 49.5 L 52 50 L 52.5 44 Z "></path><path fill="rgb(138,138,138)" stroke="rgb(138,138,138)" stroke-width="1" opacity="1" d="M 57.5 44 L 56.5 46 L 57.5 44 Z "></path><path fill="rgb(138,138,138)" stroke="rgb(138,138,138)" stroke-width="1" opacity="1" d="M 60.5 44 L 59.5 46 L 60.5 44 Z "></path><path fill="rgb(138,138,138)" stroke="rgb(138,138,138)" stroke-width="1" opacity="1" d="M 72.5 44 L 73 49.5 L 72 49.5 L 72.5 44 Z "></path><path fill="rgb(138,138,138)" stroke="rgb(138,138,138)" stroke-width="1" opacity="1" d="M 78.5 44 L 79 57.5 L 78 57.5 L 78.5 44 Z "></path><path fill="rgb(138,138,138)" stroke="rgb(138,138,138)" stroke-width="1" opacity="1" d="M 97.5 44 L 98 57.5 L 97 57.5 L 97.5 44 Z "></path><path fill="rgb(138,138,138)" stroke="rgb(138,138,138)" stroke-width="1" opacity="1" d="M 106.5 44 L 105.5 46 L 106.5 44 Z "></path><path fill="rgb(138,138,138)" stroke="rgb(138,138,138)" stroke-width="1" opacity="1" d="M 63.5 45 L 64 57.5 L 63 57.5 L 63.5 45 Z "></path><path fill="rgb(138,138,138)" stroke="rgb(138,138,138)" stroke-width="1" opacity="1" d="M 25.5 46 L 26 57.5 L 25 57.5 L 25.5 46 Z "></path><path fill="rgb(138,138,138)" stroke="rgb(138,138,138)" stroke-width="1" opacity="1" d="M 44.5 47 L 46.5 50 L 44.5 47 Z "></path><path fill="rgb(138,138,138)" stroke="rgb(138,138,138)" stroke-width="1" opacity="1" d="M 47.5 47 L 49.5 50 L 47.5 47 Z "></path><path fill="rgb(138,138,138)" stroke="rgb(138,138,138)" stroke-width="1" opacity="1" d="M 81.5 48 L 85 48.5 L 81.5 49 L 81.5 48 Z "></path><path fill="rgb(138,138,138)" stroke="rgb(138,138,138)" stroke-width="1" opacity="1" d="M 105.5 49 L 107 49.5 L 107 57.5 L 106 57.5 Q 106.6 50.8 105.5 49 Z "></path><path fill="rgb(138,138,138)" stroke="rgb(138,138,138)" stroke-width="1" opacity="1" d="M 81.5 50 L 84 50.5 L 81.5 51 L 81.5 50 Z "></path><path fill="rgb(138,138,138)" stroke="rgb(138,138,138)" stroke-width="1" opacity="1" d="M 52 52 L 55 53.5 L 53 53.5 L 52.5 58 L 52 52 Z "></path><path fill="rgb(138,138,138)" stroke="rgb(138,138,138)" stroke-width="1" opacity="1" d="M 56.5 52 L 57.5 54 L 56.5 52 Z "></path><path fill="rgb(138,138,138)" stroke="rgb(138,138,138)" stroke-width="1" opacity="1" d="M 72.5 52 L 73 57.5 L 72 57.5 L 72.5 52 Z "></path><path fill="rgb(138,138,138)" stroke="rgb(138,138,138)" stroke-width="1" opacity="1" d="M 44.5 54 L 42.5 57 L 44.5 54 Z "></path><path fill="rgb(138,138,138)" stroke="rgb(138,138,138)" stroke-width="1" opacity="1" d="M 47.5 54 L 46.5 56 L 47.5 54 Z "></path><path fill="rgb(138,138,138)" stroke="rgb(138,138,138)" stroke-width="1" opacity="1" d="M 32.5 59 L 31.5 61 L 32.5 59 Z "></path><path fill="rgb(138,138,138)" stroke="rgb(138,138,138)" stroke-width="1" opacity="1" d="M 45.5 76 L 46.5 78 L 45.5 76 Z "></path><path fill="rgb(138,138,138)" stroke="rgb(138,138,138)" stroke-width="1" opacity="1" d="M 54.5 78 L 53.5 80 L 51 79.5 L 54.5 78 Z "></path><path fill="rgb(138,138,138)" stroke="rgb(138,138,138)" stroke-width="1" opacity="1" d="M 78.5 81 L 77.5 83 L 78.5 81 Z "></path><path fill="rgb(138,138,138)" stroke="rgb(138,138,138)" stroke-width="1" opacity="1" d="M 50.5 84 L 51 86.5 L 50 86.5 L 50.5 84 Z "></path><path fill="rgb(138,138,138)" stroke="rgb(138,138,138)" stroke-width="1" opacity="1" d="M 78.5 84 L 79 88.5 L 78 88.5 L 78.5 84 Z "></path><path fill="rgb(138,138,138)" stroke="rgb(138,138,138)" stroke-width="1" opacity="1" d="M 58.5 86 L 57.5 88 L 58.5 86 Z "></path><path fill="rgb(138,138,138)" stroke="rgb(138,138,138)" stroke-width="1" opacity="1" d="M 51.5 88 L 52.5 90 L 51.5 88 Z "></path><path fill="rgb(138,138,138)" stroke="rgb(138,138,138)" stroke-width="1" opacity="1" d="M 41.5 108 L 39.5 111 L 41.5 108 Z "></path><path fill="rgb(138,138,138)" stroke="rgb(138,138,138)" stroke-width="1" opacity="1" d="M 56.5 108 L 57 112.5 L 56 112.5 L 56.5 108 Z "></path><path fill="rgb(138,138,138)" stroke="rgb(138,138,138)" stroke-width="1" opacity="1" d="M 30.5 110 L 31 120.5 L 30 120.5 L 30.5 110 Z "></path><path fill="rgb(138,138,138)" stroke="rgb(138,138,138)" stroke-width="1" opacity="1" d="M 46.5 110 L 47.5 112 L 46.5 110 Z "></path><path fill="rgb(138,138,138)" stroke="rgb(138,138,138)" stroke-width="1" opacity="1" d="M 71.5 110 L 70.5 112 L 71.5 110 Z "></path><path fill="rgb(138,138,138)" stroke="rgb(138,138,138)" stroke-width="1" opacity="1" d="M 75.5 110 L 76.5 112 L 75.5 110 Z "></path><path fill="rgb(138,138,138)" stroke="rgb(138,138,138)" stroke-width="1" opacity="1" d="M 41.5 112 L 48 113.5 L 41 114 L 41.5 112 Z "></path><path fill="rgb(138,138,138)" stroke="rgb(138,138,138)" stroke-width="1" opacity="1" d="M 69.5 113 L 70 116.5 L 69 116.5 L 69.5 113 Z "></path><path fill="rgb(138,138,138)" stroke="rgb(138,138,138)" stroke-width="1" opacity="1" d="M 41.5 115 L 51 115.5 L 41.5 116 L 41.5 115 Z "></path><path fill="rgb(138,138,138)" stroke="rgb(138,138,138)" stroke-width="1" opacity="1" d="M 56.5 116 L 57 121.5 L 56 121.5 L 56.5 116 Z "></path><path fill="rgb(138,138,138)" stroke="rgb(138,138,138)" stroke-width="1" opacity="1" d="M 59.5 118 L 62.5 122 L 59.5 118 Z "></path><path fill="rgb(138,138,138)" stroke="rgb(138,138,138)" stroke-width="1" opacity="1" d="M 63.5 119 L 64.5 121 L 63.5 119 Z "></path><path fill="rgb(138,138,138)" stroke="rgb(138,138,138)" stroke-width="1" opacity="1" d="M 78.5 119 L 77.5 121 L 78.5 119 Z "></path><path fill="rgb(49,49,49)" stroke="rgb(49,49,49)" stroke-width="1" opacity="1" d="M 74.5 6 L 73.5 8 L 74.5 6 Z "></path><path fill="rgb(49,49,49)" stroke="rgb(49,49,49)" stroke-width="1" opacity="1" d="M 10.5 12 Q 13 13 12 17.5 L 11 17.5 L 10.5 13 L 9.5 26 L 9 13.5 L 10.5 12 Z "></path><path fill="rgb(49,49,49)" stroke="rgb(49,49,49)" stroke-width="1" opacity="1" d="M 26.5 12 L 30 12.5 L 26.5 13 L 26.5 12 Z "></path><path fill="rgb(49,49,49)" stroke="rgb(49,49,49)" stroke-width="1" opacity="1" d="M 38.5 12 L 38 13.5 L 37.5 26 L 37 13.5 L 38.5 12 Z "></path><path fill="rgb(49,49,49)" stroke="rgb(49,49,49)" stroke-width="1" opacity="1" d="M 54.5 12 L 58 12.5 L 54.5 13 L 54.5 12 Z "></path><path fill="rgb(49,49,49)" stroke="rgb(49,49,49)" stroke-width="1" opacity="1" d="M 92.5 12 L 103 12.5 L 92.5 13 L 92.5 12 Z "></path><path fill="rgb(49,49,49)" stroke="rgb(49,49,49)" stroke-width="1" opacity="1" d="M 109.5 12 L 113 12.5 L 109.5 13 L 109.5 12 Z "></path><path fill="rgb(49,49,49)" stroke="rgb(49,49,49)" stroke-width="1" opacity="1" d="M 31.5 13 L 32.5 15 L 31.5 13 Z "></path><path fill="rgb(49,49,49)" stroke="rgb(49,49,49)" stroke-width="1" opacity="1" d="M 44.5 13 L 43.5 15 L 44.5 13 Z "></path><path fill="rgb(49,49,49)" stroke="rgb(49,49,49)" stroke-width="1" opacity="1" d="M 59.5 13 L 60.5 15 L 59.5 13 Z "></path><path fill="rgb(49,49,49)" stroke="rgb(49,49,49)" stroke-width="1" opacity="1" d="M 107.5 13 L 106.5 15 L 107.5 13 Z "></path><path fill="rgb(49,49,49)" stroke="rgb(49,49,49)" stroke-width="1" opacity="1" d="M 25.5 14 L 24.5 16 L 23 15.5 L 25.5 14 Z "></path><path fill="rgb(49,49,49)" stroke="rgb(49,49,49)" stroke-width="1" opacity="1" d="M 53.5 14 L 52.5 16 L 53.5 14 Z "></path><path fill="rgb(49,49,49)" stroke="rgb(49,49,49)" stroke-width="1" opacity="1" d="M 96.5 14 L 97 25.5 L 96 25.5 L 96.5 14 Z "></path><path fill="rgb(49,49,49)" stroke="rgb(49,49,49)" stroke-width="1" opacity="1" d="M 113.5 14 L 114.5 16 L 113.5 14 Z "></path><path fill="rgb(49,49,49)" stroke="rgb(49,49,49)" stroke-width="1" opacity="1" d="M 71.5 17 L 72.5 19 L 71.5 17 Z "></path><path fill="rgb(49,49,49)" stroke="rgb(49,49,49)" stroke-width="1" opacity="1" d="M 25.5 18 L 31 19.5 L 28.5 20 L 25.5 19 L 25.5 18 Z "></path><path fill="rgb(49,49,49)" stroke="rgb(49,49,49)" stroke-width="1" opacity="1" d="M 14.5 19 L 15.5 21 L 14.5 19 Z "></path><path fill="rgb(49,49,49)" stroke="rgb(49,49,49)" stroke-width="1" opacity="1" d="M 23.5 19 L 23 20.5 L 22.5 22 L 22 20.5 L 23.5 19 Z "></path><path fill="rgb(49,49,49)" stroke="rgb(49,49,49)" stroke-width="1" opacity="1" d="M 42.5 19 L 43.5 21 L 42.5 19 Z "></path><path fill="rgb(49,49,49)" stroke="rgb(49,49,49)" stroke-width="1" opacity="1" d="M 81.5 19 L 89 19.5 L 81.5 20 L 81.5 19 Z "></path><path fill="rgb(49,49,49)" stroke="rgb(49,49,49)" stroke-width="1" opacity="1" d="M 11.5 20 L 12 25.5 L 11 25.5 L 11.5 20 Z "></path><path fill="rgb(49,49,49)" stroke="rgb(49,49,49)" stroke-width="1" opacity="1" d="M 30.5 22 L 30.5 25 Q 27.5 23.5 30.5 22 Z "></path><path fill="rgb(49,49,49)" stroke="rgb(49,49,49)" stroke-width="1" opacity="1" d="M 42.5 22 L 44.5 25 L 42.5 22 Z "></path><path fill="rgb(49,49,49)" stroke="rgb(49,49,49)" stroke-width="1" opacity="1" d="M 52.5 22 L 53.5 24 L 52.5 22 Z "></path><path fill="rgb(49,49,49)" stroke="rgb(49,49,49)" stroke-width="1" opacity="1" d="M 114.5 22 L 113.5 24 L 114.5 22 Z "></path><path fill="rgb(49,49,49)" stroke="rgb(49,49,49)" stroke-width="1" opacity="1" d="M 15.5 23 L 17.5 26 L 15.5 23 Z "></path><path fill="rgb(49,49,49)" stroke="rgb(49,49,49)" stroke-width="1" opacity="1" d="M 106.5 38 L 105.5 42 Q 102 40 106.5 38 Z "></path><path fill="rgb(49,49,49)" stroke="rgb(49,49,49)" stroke-width="1" opacity="1" d="M 15.5 44 Q 18 45 17 49.5 L 16 49.5 L 15.5 45 L 14.5 57 L 14 45.5 L 15.5 44 Z "></path><path fill="rgb(49,49,49)" stroke="rgb(49,49,49)" stroke-width="1" opacity="1" d="M 24.5 44 L 25.5 46 L 24 45.5 L 23.5 50 L 23 45.5 L 24.5 44 Z "></path><path fill="rgb(49,49,49)" stroke="rgb(49,49,49)" stroke-width="1" opacity="1" d="M 42.5 44 Q 46.5 43.5 47 46.5 L 44.5 45 Q 41.5 45.5 42.5 44 Z "></path><path fill="rgb(49,49,49)" stroke="rgb(49,49,49)" stroke-width="1" opacity="1" d="M 50 44 L 52 44.5 L 50.5 50 L 50 44 Z "></path><path fill="rgb(49,49,49)" stroke="rgb(49,49,49)" stroke-width="1" opacity="1" d="M 98.5 44 L 100 44.5 L 100 53.5 L 99 53.5 Q 99.7 46 98.5 44 Z "></path><path fill="rgb(49,49,49)" stroke="rgb(49,49,49)" stroke-width="1" opacity="1" d="M 58.5 46 L 55.5 50 Q 52.5 48.5 55.5 47 Q 57 49.5 58.5 46 Z "></path><path fill="rgb(49,49,49)" stroke="rgb(49,49,49)" stroke-width="1" opacity="1" d="M 108.5 46 L 109 55.5 L 108 55.5 L 108.5 46 Z "></path><path fill="rgb(49,49,49)" stroke="rgb(49,49,49)" stroke-width="1" opacity="1" d="M 86.5 49 L 87.5 51 L 86.5 49 Z "></path><path fill="rgb(49,49,49)" stroke="rgb(49,49,49)" stroke-width="1" opacity="1" d="M 103.5 49 L 104.5 51 L 103.5 49 Z "></path><path fill="rgb(49,49,49)" stroke="rgb(49,49,49)" stroke-width="1" opacity="1" d="M 17.5 51 Q 22.8 49.8 24 52.5 L 23.5 58 L 23 52 L 17 52 L 17 56.5 L 16 56.5 Q 15 52 17.5 51 Z "></path><path fill="rgb(49,49,49)" stroke="rgb(49,49,49)" stroke-width="1" opacity="1" d="M 49.5 51 Q 52.3 52.3 51 57.5 L 50 57.5 L 49.5 52 L 48 52.5 L 49.5 51 Z "></path><path fill="rgb(49,49,49)" stroke="rgb(49,49,49)" stroke-width="1" opacity="1" d="M 66.5 51 L 73 51.5 L 66.5 52 L 66.5 51 Z "></path><path fill="rgb(49,49,49)" stroke="rgb(49,49,49)" stroke-width="1" opacity="1" d="M 80.5 51 L 81 54.5 L 80 54.5 L 80.5 51 Z "></path><path fill="rgb(49,49,49)" stroke="rgb(49,49,49)" stroke-width="1" opacity="1" d="M 46.5 52 L 45.5 54 L 46.5 52 Z "></path><path fill="rgb(49,49,49)" stroke="rgb(49,49,49)" stroke-width="1" opacity="1" d="M 101.5 52 L 102.5 54 L 101.5 52 Z "></path><path fill="rgb(49,49,49)" stroke="rgb(49,49,49)" stroke-width="1" opacity="1" d="M 55.5 54 L 56.5 56 L 55.5 54 Z "></path><path fill="rgb(49,49,49)" stroke="rgb(49,49,49)" stroke-width="1" opacity="1" d="M 58.5 55 L 59.5 57 L 58.5 55 Z "></path><path fill="rgb(49,49,49)" stroke="rgb(49,49,49)" stroke-width="1" opacity="1" d="M 45.5 56 L 44.5 58 L 45.5 56 Z "></path><path fill="rgb(49,49,49)" stroke="rgb(49,49,49)" stroke-width="1" opacity="1" d="M 100.5 56 L 99.5 58 L 100.5 56 Z "></path><path fill="rgb(49,49,49)" stroke="rgb(49,49,49)" stroke-width="1" opacity="1" d="M 37.5 77 L 38 89 L 45 89.5 L 38.5 90 L 37 88.5 L 37.5 77 Z "></path><path fill="rgb(49,49,49)" stroke="rgb(49,49,49)" stroke-width="1" opacity="1" d="M 52.5 77 L 51.5 79 L 52.5 77 Z "></path><path fill="rgb(49,49,49)" stroke="rgb(49,49,49)" stroke-width="1" opacity="1" d="M 39.5 78 L 40 81.5 L 39 81.5 L 39.5 78 Z "></path><path fill="rgb(49,49,49)" stroke="rgb(49,49,49)" stroke-width="1" opacity="1" d="M 59.5 79 L 60 81.5 L 59 81.5 L 59.5 79 Z "></path><path fill="rgb(49,49,49)" stroke="rgb(49,49,49)" stroke-width="1" opacity="1" d="M 61.5 80 L 62 88.5 Q 60.8 91.3 59.5 89 L 58 88.5 L 59.5 88 L 61 88.5 L 61.5 80 Z "></path><path fill="rgb(49,49,49)" stroke="rgb(49,49,49)" stroke-width="1" opacity="1" d="M 76.5 80 L 79 80.5 Q 76.9 83.8 76.5 80 Z "></path><path fill="rgb(49,49,49)" stroke="rgb(49,49,49)" stroke-width="1" opacity="1" d="M 44.5 81 L 47 81.5 L 45.5 85 L 44.5 81 Z "></path><path fill="rgb(49,49,49)" stroke="rgb(49,49,49)" stroke-width="1" opacity="1" d="M 40.5 83 L 44 83.5 L 40 84 L 39.5 88 L 39 84.5 L 40.5 83 Z "></path><path fill="rgb(49,49,49)" stroke="rgb(49,49,49)" stroke-width="1" opacity="1" d="M 59.5 83 L 60 85.5 L 59 85.5 L 59.5 83 Z "></path><path fill="rgb(49,49,49)" stroke="rgb(49,49,49)" stroke-width="1" opacity="1" d="M 72.5 85 L 73.5 87 L 71 86.5 L 72.5 85 Z "></path><path fill="rgb(49,49,49)" stroke="rgb(49,49,49)" stroke-width="1" opacity="1" d="M 26.5 108 L 30 109.5 L 26 110 L 26.5 108 Z "></path><path fill="rgb(49,49,49)" stroke="rgb(49,49,49)" stroke-width="1" opacity="1" d="M 54.5 108 L 55 120.5 L 56 121.5 L 54 120.5 L 54.5 108 Z "></path><path fill="rgb(49,49,49)" stroke="rgb(49,49,49)" stroke-width="1" opacity="1" d="M 64.5 108 L 59.5 114 L 57.5 114 L 56 113.5 L 60.5 110 L 61.5 111 L 64.5 108 Z "></path><path fill="rgb(49,49,49)" stroke="rgb(49,49,49)" stroke-width="1" opacity="1" d="M 33.5 109 L 37 109.5 L 33 110 L 33 120.5 L 31.5 122 L 32 120.5 L 32 110.5 L 33.5 109 Z "></path><path fill="rgb(49,49,49)" stroke="rgb(49,49,49)" stroke-width="1" opacity="1" d="M 81.5 109 L 85 109.5 L 81.5 110 L 81.5 109 Z "></path><path fill="rgb(49,49,49)" stroke="rgb(49,49,49)" stroke-width="1" opacity="1" d="M 87.5 109 L 91 109.5 L 87.5 110 L 87.5 109 Z "></path><path fill="rgb(49,49,49)" stroke="rgb(49,49,49)" stroke-width="1" opacity="1" d="M 42.5 110 L 41.5 112 L 42.5 110 Z "></path><path fill="rgb(49,49,49)" stroke="rgb(49,49,49)" stroke-width="1" opacity="1" d="M 56.5 115 L 59 116.5 L 57.5 116 L 56.5 115 Z "></path><path fill="rgb(49,49,49)" stroke="rgb(49,49,49)" stroke-width="1" opacity="1" d="M 60.5 116 L 62.5 119 L 60.5 116 Z "></path><path fill="rgb(49,49,49)" stroke="rgb(49,49,49)" stroke-width="1" opacity="1" d="M 76.5 118 L 75.5 120 L 76.5 118 Z "></path><path fill="rgb(49,49,49)" stroke="rgb(49,49,49)" stroke-width="1" opacity="1" d="M 68.5 119 L 69.5 121 L 68.5 119 Z "></path><path fill="rgb(49,49,49)" stroke="rgb(49,49,49)" stroke-width="1" opacity="1" d="M 43.5 121 L 47 121.5 L 43.5 122 L 43.5 121 Z "></path><path fill="rgb(49,49,49)" stroke="rgb(49,49,49)" stroke-width="1" opacity="1" d="M 71.5 121 L 76 121.5 L 71.5 122 L 71.5 121 Z "></path><path fill="rgb(0,0,0)" stroke="rgb(0,0,0)" stroke-width="1" opacity="1" d="M 67.5 7 L 72.5 9 L 75 7.5 L 73.5 10 Q 67.2 11 67.5 7 Z "></path><path fill="rgb(0,0,0)" stroke="rgb(0,0,0)" stroke-width="1" opacity="1" d="M 10.5 13 L 11 18 L 18.5 13 L 14 18.5 L 20 25.5 L 18.5 26 L 11 20 L 10.5 26 L 10.5 13 Z "></path><path fill="rgb(0,0,0)" stroke="rgb(0,0,0)" stroke-width="1" opacity="1" d="M 24.5 13 Q 31.5 11.5 33 15.5 L 33 25.5 L 31 26 L 30.5 24 Q 29.8 26.8 25.5 26 L 23 25 L 22 22.5 L 24.5 19 L 31 18 L 29.5 14 L 23.5 15 L 24.5 13 Z M 29 19 L 26 20 L 24 24 L 27 25 L 31 23 Q 33 18 29 19 Z "></path><path fill="rgb(0,0,0)" stroke="rgb(0,0,0)" stroke-width="1" opacity="1" d="M 38.5 13 L 39 18 L 46.5 13 L 42 18.5 L 48 25.5 L 45 26 L 40.5 20 Q 37.8 19.4 39 25.5 L 38 25.5 L 38.5 13 Z "></path><path fill="rgb(0,0,0)" stroke="rgb(0,0,0)" stroke-width="1" opacity="1" d="M 52.5 13 Q 59.5 11.5 61 15.5 L 62 21.5 L 59.5 25 L 54.5 26 L 51 23.5 L 50 16.5 L 52.5 13 Z M 54 14 Q 50 16 52 23 L 56 25 L 59 24 Q 61 22 60 17 Q 59 13 54 14 Z "></path><path fill="rgb(0,0,0)" stroke="rgb(0,0,0)" stroke-width="1" opacity="1" d="M 66 13 L 68 13.5 L 68 20.5 L 67.5 22 L 70 20.5 L 74 13 L 77 13.5 L 77 26 L 75 25.5 L 75 16.5 L 72 18.5 L 67.5 26 L 66 25.5 L 66 13 Z "></path><path fill="rgb(0,0,0)" stroke="rgb(0,0,0)" stroke-width="1" opacity="1" d="M 92.5 13 L 103 13.5 L 98 14 L 97.5 26 L 97 14 L 92.5 14 L 92.5 13 Z "></path><path fill="rgb(0,0,0)" stroke="rgb(0,0,0)" stroke-width="1" opacity="1" d="M 108.5 13 Q 114.5 11.5 116 14.5 L 117 21.5 L 114.5 25 L 109.5 26 L 106 23.5 L 105 17.5 L 108.5 13 Z M 110 14 L 107 17 Q 106 22 108 24 L 111 25 L 114 24 L 116 20 L 115 16 Q 114 13 110 14 Z "></path><path fill="rgb(0,0,0)" stroke="rgb(0,0,0)" stroke-width="1" opacity="1" d="M 81.5 18 L 89 18.5 L 81.5 19 L 81.5 18 Z "></path><path fill="rgb(0,0,0)" stroke="rgb(0,0,0)" stroke-width="1" opacity="1" d="M 99.5 39 L 104.5 41 L 107 39.5 Q 107.8 41.8 105.5 41 L 101.5 42 L 99.5 39 Z "></path><path fill="rgb(0,0,0)" stroke="rgb(0,0,0)" stroke-width="1" opacity="1" d="M 15.5 45 L 16 50 L 24 50 L 24 45.5 L 25 45.5 L 24.5 58 Q 25.4 52.6 22.5 51 Q 17.3 49.8 16 52.5 L 15.5 58 L 15.5 45 Z "></path><path fill="rgb(0,0,0)" stroke="rgb(0,0,0)" stroke-width="1" opacity="1" d="M 29 45 Q 32 43.8 31 47.5 L 34.5 55 L 38 45 L 40 45.5 L 35 59.5 L 32.5 62 L 30 61.5 L 33 59.5 L 33 55.5 L 29 45 Z "></path><path fill="rgb(0,0,0)" stroke="rgb(0,0,0)" stroke-width="1" opacity="1" d="M 43.5 45 L 51 50 L 51.5 45 L 52 50 L 56 47.5 L 57.5 45 L 59 45.5 L 55 49.5 L 55 51.5 L 60 57.5 L 58.5 58 L 52.5 51 L 51.5 58 Q 52.4 52.6 49.5 51 L 43.5 58 L 43 56.5 L 48 50.5 L 43.5 45 Z "></path><path fill="rgb(0,0,0)" stroke="rgb(0,0,0)" stroke-width="1" opacity="1" d="M 64 45 L 66 45 L 66 50 L 73 50 L 73 45 L 75 45 L 75 56.5 L 73.5 58 L 73 51 L 66 51 L 66 56.5 L 64 57.5 L 64 45 Z "></path><path fill="rgb(0,0,0)" stroke="rgb(0,0,0)" stroke-width="1" opacity="1" d="M 79 45 L 81 45.5 L 80 47.5 Q 81 50 85.5 49 L 88 51.5 Q 89 56 86.5 57 L 79 58 L 79 45 Z M 82 50 Q 79 51 80 55 Q 81 57 86 56 L 87 53 Q 86 49 82 50 Z "></path><path fill="rgb(0,0,0)" stroke="rgb(0,0,0)" stroke-width="1" opacity="1" d="M 91 45 L 93 45.5 L 93 58 L 91 57.5 L 91 45 Z "></path><path fill="rgb(0,0,0)" stroke="rgb(0,0,0)" stroke-width="1" opacity="1" d="M 98.5 45 L 99 54 L 102 52.5 L 106 45 L 109 45.5 L 108 46.5 L 108 55.5 Q 110.3 56.8 107.5 58 L 106.5 48 L 98.5 58 L 98.5 45 Z "></path><path fill="rgb(0,0,0)" stroke="rgb(0,0,0)" stroke-width="1" opacity="1" d="M 38 76 Q 44.5 74.8 47 78.5 L 45 82.5 Q 47.7 83.3 47 87.5 L 45.5 89 L 38 89 L 38 76 Z M 39 78 L 39 82 L 45 82 L 45 78 L 39 78 Z M 41 83 L 39 85 Q 37 91 45 88 L 46 84 L 41 83 Z "></path><path fill="rgb(0,0,0)" stroke="rgb(0,0,0)" stroke-width="1" opacity="1" d="M 54.5 76 Q 59.6 75.4 61 78.5 L 60.5 89 L 58.5 88 L 54.5 90 L 51 87.5 Q 50.3 83.8 52.5 83 L 60 82 L 58.5 78 L 52.5 79 L 54.5 76 Z M 56 83 L 55 84 L 53 84 L 53 88 Q 59 89 60 86 Q 61 81 56 83 Z "></path><path fill="rgb(0,0,0)" stroke="rgb(0,0,0)" stroke-width="1" opacity="1" d="M 66 76 L 69 77.5 L 73.5 87 L 79.5 76 L 81 77.5 L 81 89 L 79 88.5 L 79 80.5 L 77 81.5 L 73.5 89 Q 70.9 89.8 72 86.5 L 68.5 80 L 68 89 L 66 88.5 L 66 76 Z "></path><path fill="rgb(0,0,0)" stroke="rgb(0,0,0)" stroke-width="1" opacity="1" d="M 27.5 108 L 37 108.5 L 32 110.5 L 31.5 121 L 31 110.5 L 29.5 109 Q 26.5 109.5 27.5 108 Z "></path><path fill="rgb(0,0,0)" stroke="rgb(0,0,0)" stroke-width="1" opacity="1" d="M 43.5 108 L 49 109 L 50 115 L 41.5 115 L 41 117.5 Q 41.8 120.8 46.5 120 L 49.5 118 L 50 120 Q 47.6 121.8 41.5 121 Q 38 119 39 112.5 L 41.5 109 L 43.5 108 Z M 45 109 L 43 110 L 41 114 L 49 114 L 49 113 L 45 109 Z "></path><path fill="rgb(0,0,0)" stroke="rgb(0,0,0)" stroke-width="1" opacity="1" d="M 55.5 108 L 56 114 L 61 110.5 L 62.5 108 L 64 108.5 L 59 114.5 L 64 120.5 L 62.5 121 L 57.5 115 Q 54.8 114.4 56 120.5 L 55 120.5 L 55.5 108 Z "></path><path fill="rgb(0,0,0)" stroke="rgb(0,0,0)" stroke-width="1" opacity="1" d="M 71.5 108 Q 78 107 79 111.5 L 77.5 112 L 72.5 109 Q 68 110 69 116.5 L 71.5 120 Q 76.5 121 77.5 118 L 78 119.5 Q 76.5 122.5 70.5 121 L 68 118.5 L 67 114.5 L 69 109 L 71.5 108 Z "></path><path fill="rgb(0,0,0)" stroke="rgb(0,0,0)" stroke-width="1" opacity="1" d="M 81.5 108 L 91 108.5 L 87 109 L 87 120.5 L 85 121 L 85 109.5 L 81.5 109 L 81.5 108 Z "></path><path fill="rgb(213,213,213)" stroke="rgb(213,213,213)" stroke-width="1" opacity="1" d="M 31.5 12 L 32.5 14 L 31.5 12 Z "></path><path fill="rgb(213,213,213)" stroke="rgb(213,213,213)" stroke-width="1" opacity="1" d="M 59.5 12 L 61.5 15 L 59.5 12 Z "></path><path fill="rgb(213,213,213)" stroke="rgb(213,213,213)" stroke-width="1" opacity="1" d="M 77.5 12 L 78 25.5 L 75.5 27 L 74 25.5 Q 75.5 20 73 18.5 L 75 17.5 L 75 25.5 L 77 26 L 77.5 12 Z "></path><path fill="rgb(213,213,213)" stroke="rgb(213,213,213)" stroke-width="1" opacity="1" d="M 91.5 12 L 92 14 L 96 14.5 L 92.5 15 L 91.5 12 Z "></path><path fill="rgb(213,213,213)" stroke="rgb(213,213,213)" stroke-width="1" opacity="1" d="M 107.5 12 L 105.5 15 L 107.5 12 Z "></path><path fill="rgb(213,213,213)" stroke="rgb(213,213,213)" stroke-width="1" opacity="1" d="M 103.5 13 L 102.5 15 L 99 14.5 L 103.5 13 Z "></path><path fill="rgb(213,213,213)" stroke="rgb(213,213,213)" stroke-width="1" opacity="1" d="M 33.5 15 L 34 25.5 L 31.5 27 L 30.5 25 L 33 26 L 33.5 15 Z "></path><path fill="rgb(213,213,213)" stroke="rgb(213,213,213)" stroke-width="1" opacity="1" d="M 30.5 16 L 29.5 18 L 27 17.5 L 30.5 16 Z "></path><path fill="rgb(213,213,213)" stroke="rgb(213,213,213)" stroke-width="1" opacity="1" d="M 62.5 17 L 63 20.5 L 62 20.5 L 62.5 17 Z "></path><path fill="rgb(213,213,213)" stroke="rgb(213,213,213)" stroke-width="1" opacity="1" d="M 104.5 17 L 105 20.5 L 104 20.5 L 104.5 17 Z "></path><path fill="rgb(213,213,213)" stroke="rgb(213,213,213)" stroke-width="1" opacity="1" d="M 23.5 18 L 22.5 20 L 23.5 18 Z "></path><path fill="rgb(213,213,213)" stroke="rgb(213,213,213)" stroke-width="1" opacity="1" d="M 58.5 22 L 57.5 24 L 58.5 22 Z "></path><path fill="rgb(213,213,213)" stroke="rgb(213,213,213)" stroke-width="1" opacity="1" d="M 108.5 22 L 109.5 24 L 108.5 22 Z "></path><path fill="rgb(213,213,213)" stroke="rgb(213,213,213)" stroke-width="1" opacity="1" d="M 43.5 24 L 44.5 26 L 43.5 24 Z "></path><path fill="rgb(213,213,213)" stroke="rgb(213,213,213)" stroke-width="1" opacity="1" d="M 47.5 24 Q 50.5 25.5 47.5 27 L 46 26.5 L 48 25.5 L 47.5 24 Z "></path><path fill="rgb(213,213,213)" stroke="rgb(213,213,213)" stroke-width="1" opacity="1" d="M 20.5 25 L 19.5 27 L 18 26.5 L 20.5 25 Z "></path><path fill="rgb(213,213,213)" stroke="rgb(213,213,213)" stroke-width="1" opacity="1" d="M 25.5 26 L 29 26.5 L 25.5 27 L 25.5 26 Z "></path><path fill="rgb(213,213,213)" stroke="rgb(213,213,213)" stroke-width="1" opacity="1" d="M 54.5 26 L 58 26.5 L 54.5 27 L 54.5 26 Z "></path><path fill="rgb(213,213,213)" stroke="rgb(213,213,213)" stroke-width="1" opacity="1" d="M 109.5 26 L 113 26.5 L 109.5 27 L 109.5 26 Z "></path><path fill="rgb(213,213,213)" stroke="rgb(213,213,213)" stroke-width="1" opacity="1" d="M 107.5 40 L 106.5 42 L 107.5 40 Z "></path><path fill="rgb(213,213,213)" stroke="rgb(213,213,213)" stroke-width="1" opacity="1" d="M 90.5 44 L 91 57.5 L 90 57.5 L 90.5 44 Z "></path><path fill="rgb(213,213,213)" stroke="rgb(213,213,213)" stroke-width="1" opacity="1" d="M 93.5 44 L 94 57.5 L 93 57.5 L 93.5 44 Z "></path><path fill="rgb(213,213,213)" stroke="rgb(213,213,213)" stroke-width="1" opacity="1" d="M 42.5 45 L 43.5 47 L 42.5 45 Z "></path><path fill="rgb(213,213,213)" stroke="rgb(213,213,213)" stroke-width="1" opacity="1" d="M 109.5 45 L 110 57.5 L 109 57.5 L 109.5 45 Z "></path><path fill="rgb(213,213,213)" stroke="rgb(213,213,213)" stroke-width="1" opacity="1" d="M 55.5 46 L 54.5 48 L 55.5 46 Z "></path><path fill="rgb(213,213,213)" stroke="rgb(213,213,213)" stroke-width="1" opacity="1" d="M 57.5 48 L 56.5 50 L 57.5 48 Z "></path><path fill="rgb(213,213,213)" stroke="rgb(213,213,213)" stroke-width="1" opacity="1" d="M 103.5 48 L 102.5 50 L 103.5 48 Z "></path><path fill="rgb(213,213,213)" stroke="rgb(213,213,213)" stroke-width="1" opacity="1" d="M 17.5 49 L 23 49.5 L 17.5 50 L 17.5 49 Z "></path><path fill="rgb(213,213,213)" stroke="rgb(213,213,213)" stroke-width="1" opacity="1" d="M 66.5 49 L 72 49.5 L 66.5 50 L 66.5 49 Z "></path><path fill="rgb(213,213,213)" stroke="rgb(213,213,213)" stroke-width="1" opacity="1" d="M 46.5 51 L 45.5 53 L 46.5 51 Z "></path><path fill="rgb(213,213,213)" stroke="rgb(213,213,213)" stroke-width="1" opacity="1" d="M 101.5 51 L 100.5 53 L 101.5 51 Z "></path><path fill="rgb(213,213,213)" stroke="rgb(213,213,213)" stroke-width="1" opacity="1" d="M 49.5 52 L 48.5 54 L 49.5 52 Z "></path><path fill="rgb(213,213,213)" stroke="rgb(213,213,213)" stroke-width="1" opacity="1" d="M 58.5 54 L 59.5 56 L 58.5 54 Z "></path><path fill="rgb(213,213,213)" stroke="rgb(213,213,213)" stroke-width="1" opacity="1" d="M 85.5 54 L 84.5 56 L 81 55.5 L 85.5 54 Z "></path><path fill="rgb(213,213,213)" stroke="rgb(213,213,213)" stroke-width="1" opacity="1" d="M 55.5 55 L 56.5 57 L 55.5 55 Z "></path><path fill="rgb(213,213,213)" stroke="rgb(213,213,213)" stroke-width="1" opacity="1" d="M 55.5 75 L 58 75.5 L 55.5 76 L 55.5 75 Z "></path><path fill="rgb(213,213,213)" stroke="rgb(213,213,213)" stroke-width="1" opacity="1" d="M 52.5 76 L 51.5 78 L 52.5 76 Z "></path><path fill="rgb(213,213,213)" stroke="rgb(213,213,213)" stroke-width="1" opacity="1" d="M 65.5 76 L 66 89.5 L 65 89.5 L 65.5 76 Z "></path><path fill="rgb(213,213,213)" stroke="rgb(213,213,213)" stroke-width="1" opacity="1" d="M 81.5 77 L 82 88.5 L 81 88.5 L 81.5 77 Z "></path><path fill="rgb(213,213,213)" stroke="rgb(213,213,213)" stroke-width="1" opacity="1" d="M 40.5 78 Q 44.3 77.3 45 79.5 L 44.5 81 L 44 79 Q 39.6 80 40.5 78 Z "></path><path fill="rgb(213,213,213)" stroke="rgb(213,213,213)" stroke-width="1" opacity="1" d="M 40.5 81 L 43 81.5 L 40.5 82 L 40.5 81 Z "></path><path fill="rgb(213,213,213)" stroke="rgb(213,213,213)" stroke-width="1" opacity="1" d="M 54.5 81 L 57 81.5 L 54.5 82 L 54.5 81 Z "></path><path fill="rgb(213,213,213)" stroke="rgb(213,213,213)" stroke-width="1" opacity="1" d="M 46.5 82 L 47.5 84 L 46.5 82 Z "></path><path fill="rgb(213,213,213)" stroke="rgb(213,213,213)" stroke-width="1" opacity="1" d="M 78.5 82 L 79 84 L 77 83.5 L 78.5 82 Z "></path><path fill="rgb(213,213,213)" stroke="rgb(213,213,213)" stroke-width="1" opacity="1" d="M 68.5 84 L 69 89.5 L 68 89.5 L 68.5 84 Z "></path><path fill="rgb(213,213,213)" stroke="rgb(213,213,213)" stroke-width="1" opacity="1" d="M 53.5 86 L 57 87.5 L 54.5 88 L 53.5 86 Z "></path><path fill="rgb(213,213,213)" stroke="rgb(213,213,213)" stroke-width="1" opacity="1" d="M 40.5 87 L 44 87.5 L 40.5 88 L 40.5 87 Z "></path><path fill="rgb(213,213,213)" stroke="rgb(213,213,213)" stroke-width="1" opacity="1" d="M 26.5 107 L 37 107.5 L 26.5 108 L 26.5 107 Z "></path><path fill="rgb(213,213,213)" stroke="rgb(213,213,213)" stroke-width="1" opacity="1" d="M 62.5 107 L 65 107.5 Q 59.9 107.9 58.5 112 L 62.5 107 Z "></path><path fill="rgb(213,213,213)" stroke="rgb(213,213,213)" stroke-width="1" opacity="1" d="M 81.5 107 L 91 107.5 L 81.5 108 L 81.5 107 Z "></path><path fill="rgb(213,213,213)" stroke="rgb(213,213,213)" stroke-width="1" opacity="1" d="M 48.5 108 L 49.5 110 L 48.5 108 Z "></path><path fill="rgb(213,213,213)" stroke="rgb(213,213,213)" stroke-width="1" opacity="1" d="M 69.5 108 L 67.5 111 L 69.5 108 Z "></path><path fill="rgb(213,213,213)" stroke="rgb(213,213,213)" stroke-width="1" opacity="1" d="M 77.5 108 L 78.5 110 L 77.5 108 Z "></path><path fill="rgb(213,213,213)" stroke="rgb(213,213,213)" stroke-width="1" opacity="1" d="M 64.5 109 L 60.5 114 L 64.5 109 Z "></path><path fill="rgb(213,213,213)" stroke="rgb(213,213,213)" stroke-width="1" opacity="1" d="M 84.5 110 L 85 121.5 L 84 121.5 L 84.5 110 Z "></path><path fill="rgb(213,213,213)" stroke="rgb(213,213,213)" stroke-width="1" opacity="1" d="M 87.5 110 L 88 121.5 L 87 121.5 L 87.5 110 Z "></path><path fill="rgb(213,213,213)" stroke="rgb(213,213,213)" stroke-width="1" opacity="1" d="M 60.5 115 L 62.5 118 L 60.5 115 Z "></path><path fill="rgb(213,213,213)" stroke="rgb(213,213,213)" stroke-width="1" opacity="1" d="M 57.5 116 L 58.5 118 L 57.5 116 Z "></path><path fill="rgb(213,213,213)" stroke="rgb(213,213,213)" stroke-width="1" opacity="1" d="M 50.5 119 L 48.5 122 L 50.5 119 Z "></path></svg>